<svg width="105" height="106" viewBox="0 0 105 106" fill="none" xmlns="http://www.w3.org/2000/svg">
<mask id="mask0_208_43178" style="mask-type:alpha" maskUnits="userSpaceOnUse" x="0" y="0" width="105" height="106">
<rect x="0.0732422" y="0.386719" width="104.645" height="104.645" fill="#D9D9D9"/>
</mask>
<g mask="url(#mask0_208_43178)">
<path d="M52.3954 96.3114C46.9451 96.3114 41.84 95.2759 37.0801 93.2048C32.3202 91.1337 28.178 88.3359 24.6534 84.8114C21.1289 81.2868 18.3311 77.1446 16.26 72.3847C14.1889 67.6248 13.1534 62.5197 13.1534 57.0694C13.1534 51.6192 14.1889 46.5141 16.26 41.7542C18.3311 36.9942 21.1289 32.852 24.6534 29.3275C28.178 25.803 32.3202 23.0052 37.0801 20.9341C41.84 18.863 46.9451 17.8274 52.3954 17.8274C57.8456 17.8274 62.9507 18.863 67.7107 20.9341C72.4706 23.0052 76.6128 25.803 80.1373 29.3275C83.6618 32.852 86.4596 36.9942 88.5307 41.7542C90.6018 46.5141 91.6374 51.6192 91.6374 57.0694C91.6374 62.5197 90.6018 67.6248 88.5307 72.3847C86.4596 77.1446 83.6618 81.2868 80.1373 84.8114C76.6128 88.3359 72.4706 91.1337 67.7107 93.2048C62.9507 95.2759 57.8456 96.3114 52.3954 96.3114ZM64.604 75.3824L70.7083 69.2781L56.7556 55.3253V35.2683H48.0351V58.8135L64.604 75.3824ZM24.4899 10.6331L30.5942 16.7374L12.0633 35.2683L5.95898 29.164L24.4899 10.6331ZM80.3008 10.6331L98.8317 29.164L92.7274 35.2683L74.1965 16.7374L80.3008 10.6331ZM52.3954 87.591C60.8978 87.591 68.1103 84.6297 74.033 78.707C79.9556 72.7844 82.9169 65.5719 82.9169 57.0694C82.9169 48.567 79.9556 41.3545 74.033 35.4318C68.1103 29.5092 60.8978 26.5479 52.3954 26.5479C43.8929 26.5479 36.6804 29.5092 30.7578 35.4318C24.8351 41.3545 21.8738 48.567 21.8738 57.0694C21.8738 65.5719 24.8351 72.7844 30.7578 78.707C36.6804 84.6297 43.8929 87.591 52.3954 87.591Z" fill="#0074F0"/>
</g>
</svg>
