<svg width="123" height="123" viewBox="0 0 123 123" fill="none" xmlns="http://www.w3.org/2000/svg">
<mask id="mask0_208_43350" style="mask-type:alpha" maskUnits="userSpaceOnUse" x="0" y="0" width="123" height="123">
<rect x="0.898926" y="0.663086" width="121.41" height="121.41" fill="#D9D9D9"/>
</mask>
<g mask="url(#mask0_208_43350)">
<path d="M61.6022 117.014C52.1592 117.014 43.475 114.864 35.5497 110.564C27.6243 106.264 21.1323 100.531 16.0735 93.3645V106.897H5.95605V76.5442H36.3085V86.6617H23.7881C27.8351 92.7321 33.1678 97.6223 39.7864 101.332C46.4049 105.042 53.6768 106.897 61.6022 106.897C67.9256 106.897 73.8485 105.695 79.371 103.292C84.8934 100.889 89.6992 97.6433 93.7884 93.5542C97.8775 89.465 101.124 84.6592 103.526 79.1368C105.929 73.6143 107.131 67.6914 107.131 61.368H117.248C117.248 69.0404 115.794 76.2491 112.885 82.9941C109.976 89.7391 105.993 95.6409 100.934 100.7C95.8751 105.758 89.9733 109.742 83.2283 112.651C76.4833 115.56 69.2746 117.014 61.6022 117.014ZM57.0493 96.7791V90.2028C53.0866 89.2753 49.8617 87.568 47.3745 85.0808C44.8873 82.5936 43.0535 79.3265 41.8731 75.2795L50.22 71.9913C51.2318 75.4481 52.8126 78.0407 54.9626 79.7691C57.1125 81.4975 59.5787 82.3617 62.361 82.3617C65.1433 82.3617 67.5251 81.7083 69.5064 80.4015C71.4878 79.0946 72.4785 77.0501 72.4785 74.2678C72.4785 71.8227 71.4456 69.8414 69.38 68.3237C67.3143 66.8061 63.6257 65.0777 58.314 63.1385C53.3396 61.368 49.6931 59.2602 47.3745 56.8151C45.0559 54.3701 43.8966 51.1662 43.8966 47.2035C43.8966 43.7467 45.098 40.6061 47.5009 37.7816C49.9038 34.9571 53.1709 33.1234 57.3022 32.2802V25.9568H66.155V32.2802C69.1903 32.5332 71.9515 33.7557 74.4387 35.9478C76.9259 38.1399 78.6332 40.7115 79.5607 43.6624L71.4667 46.9506C70.7922 45.0114 69.6961 43.3884 68.1785 42.0815C66.6609 40.7747 64.5531 40.1213 61.8551 40.1213C58.9042 40.1213 56.6488 40.7536 55.089 42.0183C53.5293 43.283 52.7494 45.0114 52.7494 47.2035C52.7494 49.3956 53.719 51.124 55.6581 52.3887C57.5973 53.6534 61.0963 55.1289 66.155 56.8151C72.2255 59.0072 76.2725 61.5788 78.296 64.5297C80.3195 67.4806 81.3312 70.7266 81.3312 74.2678C81.3312 76.7128 80.9097 78.8628 80.0666 80.7176C79.2234 82.5725 78.1063 84.1534 76.7151 85.4602C75.324 86.7671 73.701 87.821 71.8461 88.6219C69.9912 89.4229 68.0099 90.0341 65.9021 90.4557V96.7791H57.0493ZM5.95605 61.368C5.95605 53.6956 7.41044 46.4869 10.3192 39.7419C13.228 32.9969 17.2117 27.095 22.2705 22.0363C27.3292 16.9776 33.2311 12.9938 39.9761 10.085C46.721 7.17625 53.9297 5.72186 61.6022 5.72186C71.0451 5.72186 79.7293 7.87183 87.6547 12.1718C95.58 16.4717 102.072 22.2049 107.131 29.3715V15.8393H117.248V46.1918H86.8959V36.0743H99.4162C95.3692 30.0038 90.0365 25.1137 83.418 21.4039C76.7995 17.6942 69.5275 15.8393 61.6022 15.8393C55.2787 15.8393 49.3558 17.0408 43.8334 19.4437C38.3109 21.8466 33.5051 25.0926 29.416 29.1818C25.3268 33.2709 22.0808 38.0767 19.6779 43.5992C17.275 49.1216 16.0735 55.0446 16.0735 61.368H5.95605Z" fill="#FAFBFB"/>
</g>
</svg>
