<svg width="44" height="44" viewBox="0 0 44 44" fill="none" xmlns="http://www.w3.org/2000/svg">
<mask id="mask0_224_50179" style="mask-type:alpha" maskUnits="userSpaceOnUse" x="0" y="0" width="44" height="44">
<rect width="44" height="44" fill="#D9D9D9"/>
</mask>
<g mask="url(#mask0_224_50179)">
<path d="M35.8356 34.8345H15.6689C14.6606 34.8345 13.7974 34.4754 13.0794 33.7574C12.3613 33.0393 12.0023 32.1761 12.0023 31.1678V5.50114C12.0023 4.49281 12.3613 3.62961 13.0794 2.91156C13.7974 2.1935 14.6606 1.83447 15.6689 1.83447H28.5023L39.5023 12.8345V31.1678C39.5023 32.1761 39.1432 33.0393 38.4252 33.7574C37.7071 34.4754 36.8439 34.8345 35.8356 34.8345ZM26.6689 14.6678V5.50114H15.6689V31.1678H35.8356V14.6678H26.6689ZM8.33561 42.1678C7.32728 42.1678 6.46408 41.8088 5.74603 41.0907C5.02797 40.3727 4.66895 39.5095 4.66895 38.5011V12.8345H8.33561V38.5011H28.5023V42.1678H8.33561Z" fill="#B5BECA"/>
</g>
</svg>
