<svg width="1171" height="579" viewBox="0 0 1171 579" fill="none" xmlns="http://www.w3.org/2000/svg">
<path d="M613.609 169.372L612.28 167.255L613.609 169.372L631.67 158.036C632.483 157.526 633.515 157.526 634.328 158.036L652.389 169.372C653.891 170.315 655.679 170.695 657.435 170.445L678.545 167.434C679.495 167.299 680.438 167.719 680.973 168.516L692.862 186.218C693.851 187.69 695.329 188.764 697.035 189.25L717.545 195.086C718.467 195.349 719.159 196.116 719.323 197.062L722.984 218.069C723.288 219.816 724.202 221.399 725.563 222.536L741.926 236.21C742.662 236.825 742.981 237.808 742.747 238.738L737.547 259.418C737.114 261.138 737.305 262.956 738.086 264.548L747.472 283.695C747.895 284.557 747.787 285.584 747.194 286.339L734.032 303.116C732.938 304.511 732.373 306.249 732.438 308.022L733.225 329.331C733.261 330.29 732.744 331.184 731.896 331.633L713.049 341.606C711.481 342.436 710.258 343.794 709.597 345.44L701.648 365.227C701.291 366.117 700.455 366.724 699.498 366.789L678.223 368.234C676.454 368.354 674.784 369.097 673.511 370.332L658.201 385.176C657.513 385.843 656.502 386.058 655.601 385.728L635.578 378.395C633.913 377.785 632.085 377.785 630.42 378.395L610.397 385.728C609.496 386.058 608.485 385.843 607.797 385.176L592.487 370.332C591.214 369.097 589.544 368.354 587.775 368.234L566.5 366.789C565.543 366.724 564.707 366.117 564.35 365.227L556.401 345.44C555.74 343.794 554.517 342.436 552.95 341.606L534.102 331.633C533.254 331.184 532.737 330.29 532.773 329.331L533.56 308.022C533.625 306.249 533.06 304.511 531.966 303.116L518.804 286.339C518.211 285.584 518.103 284.557 518.526 283.695L527.912 264.548C528.693 262.956 528.884 261.138 528.451 259.418L523.251 238.738C523.017 237.808 523.336 236.825 524.072 236.21L540.435 222.536C541.796 221.399 542.71 219.816 543.014 218.069L546.675 197.062C546.839 196.116 547.531 195.349 548.453 195.086L568.963 189.25C570.669 188.764 572.147 187.69 573.136 186.218L585.025 168.516C585.56 167.719 586.503 167.299 587.453 167.434L608.563 170.445C610.319 170.695 612.107 170.315 613.609 169.372Z" fill="#FAFBFB" stroke="#586CF8" stroke-width="5"/>
<path d="M645.908 273.196V301.112H674.215V329.419H589.841V216.979H617.992V301.112H631.904V273.196H645.901H645.908ZM673.908 273.196V244.888H659.911V216.972H631.911V231.126H645.908V273.196H673.908ZM687.906 216.581H673.908V244.888H687.906V216.581Z" fill="#586CF8"/>
<path d="M540.986 477.088V481.708H525.542V490.772H539.05V495.304H525.542V505.336H540.986V510H520.306V477.088H540.986ZM548.634 476.516C550.35 476.516 551.758 477.88 551.758 479.596C551.758 481.312 550.35 482.676 548.634 482.676C546.918 482.676 545.554 481.312 545.554 479.596C545.554 477.88 546.962 476.516 548.634 476.516ZM551.098 487.428V510H546.17V487.428H551.098ZM567.404 487.032C570.924 487.032 573.608 488.528 574.84 490.596V487.428H579.504V511.1C579.504 517.568 575.104 521.616 568.416 521.616C561.772 521.616 558.076 518.228 557.196 513.344L562.124 513.168C562.564 515.808 564.984 517.436 568.284 517.436C572.024 517.436 574.576 515.368 574.576 511.452V507.316C573.344 509.076 570.792 510.44 567.404 510.44C561.112 510.44 556.536 505.952 556.536 498.736C556.536 491.564 561.112 487.032 567.404 487.032ZM568.196 491.3C564.368 491.3 561.552 493.94 561.552 498.736C561.552 503.532 564.368 506.216 568.196 506.216C571.892 506.216 574.576 503.796 574.576 499.352V498.164C574.576 493.676 571.892 491.3 568.196 491.3ZM606.504 498.164V500.584H589.916C590.18 504.016 592.512 506.172 595.944 506.172C598.804 506.172 600.696 504.984 601.312 502.96L606.284 503.224C605.404 507.228 601.312 510.44 596.076 510.44C589.432 510.44 584.68 506.04 584.68 498.736C584.68 491.388 589.388 487.032 595.944 487.032C602.412 487.032 606.504 491.3 606.504 498.164ZM595.9 491.256C592.6 491.256 590.18 493.192 589.96 496.712H601.532C601.4 493.456 599.552 491.256 595.9 491.256ZM623.219 487.032C628.367 487.032 632.019 490.552 632.019 496.404V510H627.047V497.064C627.047 493.676 625.111 491.608 622.119 491.608C618.995 491.608 616.883 493.984 616.883 497.108V510H611.955V487.428H616.619V490.42C617.763 488.44 619.919 487.032 623.219 487.032ZM644.05 477.088V505.336H659.626V510H638.814V477.088H644.05ZM672.218 487.032C678.026 487.032 681.238 490.2 681.238 495.964V510H676.266V507.976C674.682 509.472 672.658 510.44 670.15 510.44C665.662 510.44 662.626 508.064 662.626 503.84C662.626 499 666.278 497.284 670.898 497.02L676.266 496.712V496.052C676.266 493.148 675.034 491.344 672.262 491.344C669.446 491.344 668.214 493.148 668.214 495.172L663.242 494.996C663.242 491.036 666.586 487.032 672.218 487.032ZM676.31 500.54L671.602 500.848C669.27 500.98 667.598 501.728 667.598 503.752C667.598 505.644 669.006 506.304 670.986 506.304C674.11 506.304 676.31 504.764 676.31 501.332V500.54ZM707.345 487.428L693.001 521.22H687.589L693.133 508.416L684.201 487.428H689.701L695.773 502.872L701.845 487.428H707.345ZM730.813 498.164V500.584H714.225C714.489 504.016 716.821 506.172 720.253 506.172C723.113 506.172 725.005 504.984 725.621 502.96L730.593 503.224C729.713 507.228 725.621 510.44 720.385 510.44C713.741 510.44 708.989 506.04 708.989 498.736C708.989 491.388 713.697 487.032 720.253 487.032C726.721 487.032 730.813 491.3 730.813 498.164ZM720.209 491.256C716.909 491.256 714.489 493.192 714.269 496.712H725.841C725.709 493.456 723.861 491.256 720.209 491.256ZM747.484 487.164V491.96C743.612 491.96 741.192 494.424 741.192 497.724V510H736.264V487.428H741.06V490.596C741.896 488.836 743.876 487.164 747.484 487.164ZM581.645 544.032C587.937 544.032 592.513 548.564 592.513 555.736C592.513 562.952 587.937 567.44 581.645 567.44C578.257 567.44 575.705 566.076 574.473 564.316V578.22H569.545V544.428H574.209V547.596C575.441 545.528 578.125 544.032 581.645 544.032ZM580.853 548.3C577.157 548.3 574.473 550.676 574.473 555.164V556.352C574.473 560.796 577.157 563.216 580.853 563.216C584.681 563.216 587.497 560.532 587.497 555.736C587.497 550.94 584.681 548.3 580.853 548.3ZM608.375 544.032C615.063 544.032 620.123 548.564 620.123 555.736C620.123 562.864 615.063 567.44 608.375 567.44C601.643 567.44 596.583 562.864 596.583 555.736C596.583 548.564 601.643 544.032 608.375 544.032ZM608.375 548.256C604.459 548.256 601.599 551.028 601.599 555.736C601.599 560.4 604.459 563.172 608.375 563.172C612.247 563.172 615.151 560.4 615.151 555.736C615.151 551.028 612.247 548.256 608.375 548.256ZM628.084 533.516C629.8 533.516 631.208 534.88 631.208 536.596C631.208 538.312 629.8 539.676 628.084 539.676C626.368 539.676 625.004 538.312 625.004 536.596C625.004 534.88 626.412 533.516 628.084 533.516ZM630.548 544.428V567H625.62V544.428H630.548ZM648.657 544.032C653.805 544.032 657.457 547.552 657.457 553.404V567H652.485V554.064C652.485 550.676 650.549 548.608 647.557 548.608C644.433 548.608 642.321 550.984 642.321 554.108V567H637.393V544.428H642.057V547.42C643.201 545.44 645.357 544.032 648.657 544.032ZM673.888 562.908C674.812 562.908 675.472 562.776 676 562.688V567.088C675.164 567.22 674.284 567.352 672.7 567.352C668.256 567.352 665.176 565.152 665.22 560.048L665.264 548.696H661.084V544.428H665.264L665.308 536.772H670.28L670.236 544.428H675.956V548.696H670.192L670.148 559.036C670.148 561.984 671.864 562.908 673.888 562.908ZM687.751 544.032C693.119 544.032 695.979 547.2 696.419 551.204L691.491 551.468C691.315 549.576 690.127 548.256 687.619 548.256C685.287 548.256 684.099 549.224 684.099 550.764C684.099 552.7 686.035 552.876 689.027 553.58C693.691 554.768 696.815 556.176 696.815 560.224C696.815 564.756 693.471 567.44 687.971 567.44C682.559 567.44 679.259 564.712 678.731 560.224L683.659 559.916C683.923 561.984 685.375 563.172 688.059 563.172C690.303 563.172 691.887 562.292 691.887 560.62C691.887 558.772 690.699 558.332 687.003 557.452C682.427 556.352 679.171 555.384 679.171 550.852C679.171 546.804 682.295 544.032 687.751 544.032Z" fill="#101113"/>
<path d="M429.622 249.754V267.426H447.2V277.014H429.622V295.062H419.376V277.014H401.798V267.426H419.376V249.754H429.622Z" fill="#B5BECA"/>
<path d="M837.824 249.754V267.426H855.402V277.014H837.824V295.062H827.578V277.014H810V267.426H827.578V249.754H837.824Z" fill="#B5BECA"/>
<path d="M219 387C281.96 387 333 335.96 333 273C333 210.04 281.96 159 219 159C156.04 159 105 210.04 105 273C105 335.96 156.04 387 219 387Z" fill="#EAEDF2"/>
<g clip-path="url(#clip0_208_43344)">
<path d="M218.985 197L217.948 200.463V300.946L218.985 301.963L266.471 274.392L218.985 197Z" fill="#343434"/>
<path d="M218.986 197L171.5 274.392L218.986 301.963V253.192V197Z" fill="#8C8C8C"/>
<path d="M218.986 310.795L218.401 311.494V347.289L218.986 348.966L266.5 283.238L218.986 310.795Z" fill="#3C3C3B"/>
<path d="M218.986 348.965V310.794L171.5 283.237L218.986 348.965Z" fill="#8C8C8C"/>
<path d="M218.985 301.963L266.471 274.393L218.985 253.192V301.963Z" fill="#141414"/>
<path d="M171.5 274.393L218.985 301.963V253.192L171.5 274.393Z" fill="#393939"/>
</g>
<path d="M1031.67 158.036C1032.48 157.526 1033.52 157.526 1034.33 158.036L1052.39 169.372C1053.89 170.315 1055.68 170.695 1057.43 170.445L1078.55 167.434C1079.49 167.299 1080.44 167.719 1080.97 168.516L1092.86 186.218C1093.85 187.69 1095.33 188.764 1097.04 189.25L1117.54 195.086C1118.47 195.349 1119.16 196.116 1119.32 197.062L1122.98 218.069C1123.29 219.816 1124.2 221.399 1125.56 222.536L1141.93 236.21C1142.66 236.825 1142.98 237.808 1142.75 238.738L1137.55 259.418C1137.11 261.138 1137.31 262.956 1138.09 264.548L1147.47 283.695C1147.89 284.557 1147.79 285.584 1147.19 286.339L1134.03 303.116C1132.94 304.511 1132.37 306.249 1132.44 308.022L1133.23 329.331C1133.26 330.29 1132.74 331.184 1131.9 331.633L1113.05 341.606C1111.48 342.436 1110.26 343.794 1109.6 345.44L1101.65 365.227C1101.29 366.117 1100.46 366.724 1099.5 366.789L1078.22 368.234C1076.45 368.354 1074.78 369.097 1073.51 370.332L1058.2 385.176C1057.51 385.843 1056.5 386.058 1055.6 385.728L1035.58 378.395C1033.91 377.785 1032.09 377.785 1030.42 378.395L1010.4 385.728C1009.5 386.058 1008.49 385.843 1007.8 385.176L992.487 370.332C991.214 369.097 989.544 368.354 987.775 368.234L966.5 366.789C965.543 366.724 964.707 366.117 964.35 365.227L956.401 345.44C955.74 343.794 954.517 342.436 952.95 341.606L934.102 331.633C933.254 331.184 932.737 330.29 932.773 329.331L933.56 308.022C933.625 306.249 933.06 304.511 931.966 303.116L918.804 286.339C918.211 285.584 918.103 284.557 918.526 283.695L927.912 264.548C928.693 262.956 928.884 261.138 928.451 259.418L923.251 238.738C923.017 237.808 923.336 236.825 924.072 236.21L940.435 222.536C941.796 221.399 942.71 219.816 943.014 218.069L946.675 197.062C946.839 196.116 947.531 195.349 948.453 195.086L968.963 189.25C970.669 188.764 972.147 187.69 973.136 186.218L985.025 168.516C985.56 167.719 986.503 167.299 987.453 167.434L1008.56 170.445C1010.32 170.695 1012.11 170.315 1013.61 169.372L1031.67 158.036Z" fill="#FAFBFB" stroke="#FF4E4E" stroke-width="5"/>
<path fill-rule="evenodd" clip-rule="evenodd" d="M1074.26 330.48C1076.81 324.688 1074.98 318.201 1073.23 311.987C1071.48 305.74 1069.79 299.768 1072.71 295.052C1074.28 292.531 1076.47 289.904 1078.86 287.029C1085.41 279.173 1093.5 269.466 1094.52 255.034C1095.04 247.717 1093.98 242.989 1088.61 234.968C1070.5 207.891 1013.45 186.318 990.112 202.322C986.293 204.939 983.577 206.988 979.074 211.098C969.947 219.428 967.88 227.998 970.022 238.026C970.13 238.532 970.25 239.113 970.386 239.766L970.386 239.766L970.386 239.766C972.929 252.031 980.697 289.496 1011.18 328.875C1029.97 351.175 1035.7 349.859 1040.5 348.76C1040.92 348.664 1041.33 348.57 1041.74 348.493C1046.87 347.538 1069.14 342.1 1074.26 330.489L1074.26 330.48ZM1062.79 326.535C1053.5 334.364 1044.4 330.265 1030.1 313.291C1015.81 296.316 972.18 233.73 995.997 213.648C1019.82 193.563 1064.64 222.376 1078.61 238.943C1092.57 255.515 1076.31 272.37 1066.74 280.436C1061.92 284.499 1063.31 294.18 1064.69 303.787C1066.05 313.25 1067.39 322.642 1062.79 326.527L1062.79 326.535ZM1008.71 271.341L1037.14 287.511L1065.4 271.012L1037.25 310.133L1008.71 271.341ZM1007.14 263.158L1037.31 217.545L1066.87 262.811L1037.09 280.206L1007.14 263.158ZM1057.09 319.345C1063.7 315.179 1055.99 294.429 1055.99 294.429L1055.99 294.421L1042.01 314.049C1042.01 314.049 1050.48 323.511 1057.09 319.345ZM1031.26 215.318C1031.26 215.318 1003.82 210.577 997.891 221.057C990.728 233.719 1002.31 257.554 1002.31 257.554L1031.26 215.318ZM1077.37 249.055C1077 240.695 1049.7 223.389 1049.7 223.389L1072.23 259.552C1072.23 259.552 1077.73 257.415 1077.37 249.055Z" fill="#FF4E4E"/>
<path d="M121.265 477.088V481.708H105.821V490.772H119.329V495.304H105.821V505.336H121.265V510H100.585V477.088H121.265ZM153.016 477.088V481.708H141.312V510H136.076V481.708H124.372V477.088H153.016ZM183.35 477.088V510H178.114V495.348H162.626V510H157.39V477.088H162.626V490.684H178.114V477.088H183.35ZM207.53 487.032C212.898 487.032 215.758 490.2 216.198 494.204L211.27 494.468C211.094 492.576 209.906 491.256 207.398 491.256C205.066 491.256 203.878 492.224 203.878 493.764C203.878 495.7 205.814 495.876 208.806 496.58C213.47 497.768 216.594 499.176 216.594 503.224C216.594 507.756 213.25 510.44 207.75 510.44C202.338 510.44 199.038 507.712 198.51 503.224L203.438 502.916C203.702 504.984 205.154 506.172 207.838 506.172C210.082 506.172 211.666 505.292 211.666 503.62C211.666 501.772 210.478 501.332 206.782 500.452C202.206 499.352 198.95 498.384 198.95 493.852C198.95 489.804 202.074 487.032 207.53 487.032ZM231.866 505.908C232.79 505.908 233.45 505.776 233.978 505.688V510.088C233.142 510.22 232.262 510.352 230.678 510.352C226.234 510.352 223.154 508.152 223.198 503.048L223.242 491.696H219.062V487.428H223.242L223.286 479.772H228.258L228.214 487.428H233.934V491.696H228.17L228.126 502.036C228.126 504.984 229.842 505.908 231.866 505.908ZM246.868 487.032C252.676 487.032 255.888 490.2 255.888 495.964V510H250.916V507.976C249.332 509.472 247.308 510.44 244.8 510.44C240.312 510.44 237.276 508.064 237.276 503.84C237.276 499 240.928 497.284 245.548 497.02L250.916 496.712V496.052C250.916 493.148 249.684 491.344 246.912 491.344C244.096 491.344 242.864 493.148 242.864 495.172L237.892 494.996C237.892 491.036 241.236 487.032 246.868 487.032ZM250.96 500.54L246.252 500.848C243.92 500.98 242.248 501.728 242.248 503.752C242.248 505.644 243.656 506.304 245.636 506.304C248.76 506.304 250.96 504.764 250.96 501.332V500.54ZM267.46 475.812V496.492L276.216 487.428H282.244L273.18 497.152L283.168 510H276.92L269.704 500.848L267.46 503.136V510H262.532V475.812H267.46ZM289.23 476.516C290.946 476.516 292.354 477.88 292.354 479.596C292.354 481.312 290.946 482.676 289.23 482.676C287.514 482.676 286.15 481.312 286.15 479.596C286.15 477.88 287.558 476.516 289.23 476.516ZM291.694 487.428V510H286.766V487.428H291.694ZM309.803 487.032C314.951 487.032 318.603 490.552 318.603 496.404V510H313.631V497.064C313.631 493.676 311.695 491.608 308.703 491.608C305.579 491.608 303.467 493.984 303.467 497.108V510H298.539V487.428H303.203V490.42C304.347 488.44 306.503 487.032 309.803 487.032ZM334.726 487.032C338.246 487.032 340.93 488.528 342.162 490.596V487.428H346.826V511.1C346.826 517.568 342.426 521.616 335.738 521.616C329.094 521.616 325.398 518.228 324.518 513.344L329.446 513.168C329.886 515.808 332.306 517.436 335.606 517.436C339.346 517.436 341.898 515.368 341.898 511.452V507.316C340.666 509.076 338.114 510.44 334.726 510.44C328.434 510.44 323.858 505.952 323.858 498.736C323.858 491.564 328.434 487.032 334.726 487.032ZM335.518 491.3C331.69 491.3 328.874 493.94 328.874 498.736C328.874 503.532 331.69 506.216 335.518 506.216C339.214 506.216 341.898 503.796 341.898 499.352V498.164C341.898 493.676 339.214 491.3 335.518 491.3ZM63.8747 544.164V548.96C60.0027 548.96 57.5827 551.424 57.5827 554.724V567H52.6547V544.428H57.4507V547.596C58.2867 545.836 60.2667 544.164 63.8747 544.164ZM88.3246 555.164V557.584H71.7366C72.0006 561.016 74.3326 563.172 77.7646 563.172C80.6246 563.172 82.5166 561.984 83.1326 559.96L88.1046 560.224C87.2246 564.228 83.1326 567.44 77.8966 567.44C71.2526 567.44 66.5006 563.04 66.5006 555.736C66.5006 548.388 71.2086 544.032 77.7646 544.032C84.2326 544.032 88.3246 548.3 88.3246 555.164ZM77.7206 548.256C74.4206 548.256 72.0006 550.192 71.7806 553.712H83.3526C83.2206 550.456 81.3726 548.256 77.7206 548.256ZM125.737 544.428L117.113 567H113.153L107.785 552.7L102.373 567H98.4573L89.8333 544.428H95.1573L100.569 558.948L106.025 544.428H109.501L115.001 558.948L120.413 544.428H125.737ZM137.194 544.032C143.002 544.032 146.214 547.2 146.214 552.964V567H141.242V564.976C139.658 566.472 137.634 567.44 135.126 567.44C130.638 567.44 127.602 565.064 127.602 560.84C127.602 556 131.254 554.284 135.874 554.02L141.242 553.712V553.052C141.242 550.148 140.01 548.344 137.238 548.344C134.422 548.344 133.19 550.148 133.19 552.172L128.218 551.996C128.218 548.036 131.562 544.032 137.194 544.032ZM141.286 557.54L136.578 557.848C134.246 557.98 132.574 558.728 132.574 560.752C132.574 562.644 133.982 563.304 135.962 563.304C139.086 563.304 141.286 561.764 141.286 558.332V557.54ZM164.078 544.164V548.96C160.206 548.96 157.786 551.424 157.786 554.724V567H152.858V544.428H157.654V547.596C158.49 545.836 160.47 544.164 164.078 544.164ZM189.672 532.812V567H185.008V563.876C183.776 565.944 181.092 567.44 177.572 567.44C171.28 567.44 166.704 562.908 166.704 555.736C166.704 548.52 171.28 544.032 177.572 544.032C180.96 544.032 183.512 545.396 184.744 547.156V532.812H189.672ZM178.364 548.256C174.536 548.256 171.72 550.94 171.72 555.736C171.72 560.532 174.536 563.172 178.364 563.172C182.06 563.172 184.744 560.796 184.744 556.308V555.12C184.744 550.676 182.06 548.256 178.364 548.256ZM203.817 544.032C209.185 544.032 212.045 547.2 212.485 551.204L207.557 551.468C207.381 549.576 206.193 548.256 203.685 548.256C201.353 548.256 200.165 549.224 200.165 550.764C200.165 552.7 202.101 552.876 205.093 553.58C209.757 554.768 212.881 556.176 212.881 560.224C212.881 564.756 209.537 567.44 204.037 567.44C198.625 567.44 195.325 564.712 194.797 560.224L199.725 559.916C199.989 561.984 201.441 563.172 204.125 563.172C206.369 563.172 207.953 562.292 207.953 560.62C207.953 558.772 206.765 558.332 203.069 557.452C198.493 556.352 195.237 555.384 195.237 550.852C195.237 546.804 198.361 544.032 203.817 544.032ZM230.294 542.248L232.844 543.166C230.804 546.396 229.104 550.816 229.104 556.12C229.104 561.424 230.804 565.81 232.844 569.04L230.294 569.992C228.05 566.626 226.18 561.832 226.18 556.12C226.18 550.408 228.05 545.58 230.294 542.248ZM242.671 541.228C247.227 541.228 249.981 543.948 249.981 548.198C249.981 551.19 248.315 553.094 246.343 553.842C248.757 554.42 250.627 556.494 250.627 559.826C250.627 564.45 247.465 567.34 242.739 567.34C237.775 567.34 235.021 564.45 234.715 559.86L237.843 559.69C238.115 562.75 239.747 564.552 242.739 564.552C245.697 564.552 247.499 562.75 247.499 559.758C247.499 556.732 245.391 555.236 242.467 555.236H239.985V552.482H242.399C244.983 552.482 246.853 550.85 246.853 548.198C246.853 545.478 245.221 544.016 242.671 544.016C239.985 544.016 238.387 545.682 238.183 548.606L235.123 548.436C235.293 543.982 238.013 541.228 242.671 541.228ZM264.185 556.732V559.486H253.543V556.732H264.185ZM275.353 551.394C279.773 551.394 282.935 554.284 282.935 559.214C282.935 563.974 279.977 567.34 274.945 567.34C270.117 567.34 267.329 564.518 267.023 560.064L270.151 559.894C270.423 562.784 271.987 564.552 274.979 564.552C278.175 564.552 279.841 562.308 279.841 559.282C279.841 556.188 277.937 554.148 275.047 554.148C273.347 554.148 272.021 554.692 270.797 555.678H267.941V541.568H281.983V544.322H271.001V552.618C272.191 551.87 273.619 551.394 275.353 551.394ZM291.188 541.228C294.384 541.228 296.73 543.54 296.73 547.28C296.73 551.02 294.384 553.366 291.188 553.366C287.992 553.366 285.612 551.02 285.612 547.28C285.612 543.54 287.992 541.228 291.188 541.228ZM309.004 541.568L291.052 567H288.162L306.114 541.568H309.004ZM291.154 543.336C289.25 543.336 287.788 544.798 287.788 547.28C287.788 549.796 289.25 551.292 291.154 551.292C293.092 551.292 294.52 549.796 294.52 547.28C294.52 544.798 293.126 543.336 291.154 543.336ZM305.978 555.202C309.208 555.202 311.554 557.514 311.554 561.254C311.554 564.96 309.208 567.34 305.978 567.34C302.816 567.34 300.436 564.96 300.436 561.254C300.436 557.514 302.816 555.202 305.978 555.202ZM305.978 557.276C304.04 557.276 302.612 558.738 302.612 561.254C302.612 563.736 304.074 565.232 305.978 565.232C307.95 565.232 309.344 563.77 309.344 561.254C309.344 558.738 307.95 557.276 305.978 557.276ZM334.382 541.568L345.024 567H341.624L338.972 560.54H327.174L324.488 567H321.088L331.73 541.568H334.382ZM333.09 546.362L328.33 557.82H337.816L333.09 546.362ZM358.037 541.568C362.457 541.568 365.857 544.186 365.857 549.286C365.857 554.352 362.457 556.97 358.037 556.97H351.203V567H348.075V541.568H358.037ZM357.663 544.322H351.169V554.216H357.663C360.383 554.216 362.661 552.618 362.661 549.286C362.661 545.886 360.383 544.322 357.663 544.322ZM388.85 541.568L379.228 556.426V567H376.134V556.426L366.478 541.568H370.082L377.698 553.366L385.246 541.568H388.85ZM392.439 542.248C394.683 545.58 396.553 550.408 396.553 556.12C396.553 561.832 394.683 566.626 392.439 569.992L389.889 569.04C391.929 565.81 393.629 561.424 393.629 556.12C393.629 550.816 391.929 546.396 389.889 543.166L392.439 542.248Z" fill="#101113"/>
<path d="M942.964 487.032C949.256 487.032 953.832 491.564 953.832 498.736C953.832 505.952 949.256 510.44 942.964 510.44C939.576 510.44 937.024 509.076 935.792 507.316V521.22H930.864V487.428H935.528V490.596C936.76 488.528 939.444 487.032 942.964 487.032ZM942.172 491.3C938.476 491.3 935.792 493.676 935.792 498.164V499.352C935.792 503.796 938.476 506.216 942.172 506.216C946 506.216 948.816 503.532 948.816 498.736C948.816 493.94 946 491.3 942.172 491.3ZM970.529 487.164V491.96C966.657 491.96 964.237 494.424 964.237 497.724V510H959.309V487.428H964.105V490.596C964.941 488.836 966.921 487.164 970.529 487.164ZM977.199 476.516C978.915 476.516 980.323 477.88 980.323 479.596C980.323 481.312 978.915 482.676 977.199 482.676C975.483 482.676 974.119 481.312 974.119 479.596C974.119 477.88 975.527 476.516 977.199 476.516ZM979.663 487.428V510H974.735V487.428H979.663ZM1012.2 487.032C1017.26 487.032 1020.65 490.728 1020.65 496.316V510H1015.68V497.064C1015.68 493.676 1013.96 491.608 1010.97 491.608C1008.16 491.608 1006.4 493.588 1006.09 496.272V496.404V510H1001.12V497.064C1001.12 493.676 999.268 491.608 996.584 491.608C993.46 491.608 991.436 493.984 991.436 497.108V510H986.508V487.428H991.172V490.42C992.316 488.44 994.384 487.032 997.684 487.032C1000.81 487.032 1003.4 488.484 1004.86 491.124C1006.18 488.792 1008.64 487.032 1012.2 487.032ZM1047.7 498.164V500.584H1031.11C1031.38 504.016 1033.71 506.172 1037.14 506.172C1040 506.172 1041.89 504.984 1042.51 502.96L1047.48 503.224C1046.6 507.228 1042.51 510.44 1037.27 510.44C1030.63 510.44 1025.88 506.04 1025.88 498.736C1025.88 491.388 1030.59 487.032 1037.14 487.032C1043.61 487.032 1047.7 491.3 1047.7 498.164ZM1037.1 491.256C1033.8 491.256 1031.38 493.192 1031.16 496.712H1042.73C1042.6 493.456 1040.75 491.256 1037.1 491.256ZM1073.96 477.088V481.708H1058.52V490.772H1072.03V495.304H1058.52V505.336H1073.96V510H1053.28V477.088H1073.96ZM1105.72 477.088V481.708H1094.01V510H1088.78V481.708H1077.07V477.088H1105.72ZM1136.05 477.088V510H1130.81V495.348H1115.33V510H1110.09V477.088H1115.33V490.684H1130.81V477.088H1136.05Z" fill="#FF4E4E"/>
<path d="M1033.22 534.088L1023.02 550.28L1033.75 567H1027.68L1019.19 553.756L1010.65 567H1004.58L1015.32 550.28L1005.11 534.088H1011.14L1019.19 546.76L1027.2 534.088H1033.22ZM1051.62 534.088C1057.56 534.088 1061.96 537.652 1061.96 544.34C1061.96 550.984 1057.56 554.592 1051.62 554.592H1043.4V567H1038.16V534.088H1051.62ZM1050.96 538.708H1043.35V549.928H1050.96C1054.09 549.928 1056.6 548.08 1056.6 544.34C1056.6 540.556 1054.09 538.708 1050.96 538.708Z" fill="#101113"/>
<defs>
<clipPath id="clip0_208_43344">
<rect width="95" height="152" fill="white" transform="translate(171.5 197)"/>
</clipPath>
</defs>
</svg>
