<svg width="736" height="477" viewBox="0 0 736 477" fill="none"
  xmlns="http://www.w3.org/2000/svg">
  <g opacity="0.1">
    <path d="M641.486 381.218L643.785 382.2L641.486 381.218C640.79 382.849 640.694 384.675 641.216 386.37L661.678 452.819C661.96 453.736 661.693 454.734 660.99 455.387L610.045 502.702C608.745 503.909 607.915 505.538 607.703 507.299L599.368 576.325C599.253 577.278 598.603 578.081 597.695 578.391L531.91 600.895C530.232 601.469 528.811 602.619 527.901 604.141L492.211 663.811C491.719 664.634 490.798 665.103 489.843 665.017L420.592 658.818C418.825 658.66 417.06 659.133 415.609 660.153L358.735 700.148C357.95 700.7 356.919 700.754 356.08 700.287L295.338 666.457L294.121 668.641L295.338 666.457C293.788 665.594 291.983 665.308 290.243 665.65L222.019 679.053C221.077 679.238 220.113 678.868 219.537 678.101L177.806 622.489C176.741 621.071 175.208 620.075 173.479 619.68L105.702 604.175C104.767 603.962 104.036 603.231 103.822 602.296L88.3181 534.518C87.9226 532.789 86.9271 531.257 85.5085 530.192L29.8968 488.461C29.1294 487.885 28.7592 486.921 28.9442 485.979L42.348 417.755C42.69 416.015 42.404 414.21 41.541 412.66L7.71089 351.917C7.24405 351.079 7.2981 350.048 7.85 349.263L47.8442 292.389C48.8644 290.938 49.3375 289.173 49.1793 287.406L42.9803 218.155C42.8947 217.199 43.3636 216.279 44.187 215.786L103.856 180.097C105.378 179.186 106.529 177.766 107.103 176.088L129.607 110.302C129.917 109.394 130.72 108.744 131.672 108.629L200.699 100.295C202.46 100.082 204.088 99.2525 205.295 97.9529L252.611 47.0079C253.264 46.3049 254.262 46.0376 255.179 46.3199L321.628 66.7817C323.323 67.3037 325.148 67.208 326.779 66.5117L390.726 39.2162C391.608 38.8396 392.628 39.0012 393.351 39.6321L445.733 85.3521L447.377 83.4686L445.733 85.3521C447.069 86.5184 448.775 87.1734 450.549 87.2008L520.069 88.2744C521.028 88.2892 521.894 88.8517 522.298 89.7221L551.555 152.795C552.301 154.404 553.594 155.696 555.203 156.443L618.276 185.7C619.146 186.103 619.709 186.97 619.723 187.929L620.797 257.449C620.824 259.222 621.479 260.929 622.646 262.265L668.366 314.647C668.997 315.37 669.158 316.39 668.781 317.272L641.486 381.218Z" fill="#FAFBFB" stroke="#586CF8" stroke-width="5"/>
    <path d="M375.469 359.071L395.94 435.471L473.412 414.712L494.17 492.184L263.256 554.057L180.801 246.332L257.844 225.688L319.54 455.942L357.615 445.74L337.144 369.34L375.451 359.075L375.469 359.071ZM452.101 338.537L431.343 261.065L393.036 271.33L372.564 194.93L295.932 215.463L306.311 254.199L344.618 243.935L375.469 359.071L452.101 338.537ZM448.892 173.329L410.584 183.594L431.343 261.065L469.65 250.801L448.892 173.329Z" fill="#586CF8"/>
  </g>
</svg>
