<svg width="152" height="152" viewBox="0 0 152 152" fill="none" xmlns="http://www.w3.org/2000/svg">
<path d="M50.7743 139.998L49.034 141.793L50.7743 139.998C49.5009 138.764 47.8312 138.02 46.0616 137.9L33.9914 137.08C33.0342 137.015 32.1986 136.408 31.8409 135.518L27.3315 124.292C26.6704 122.646 25.4474 121.288 23.8797 120.458L13.1864 114.8C12.3384 114.351 11.8219 113.457 11.8574 112.498L12.3039 100.408C12.3693 98.6358 11.8045 96.8976 10.7098 95.5021L3.24234 85.9838C2.65013 85.2289 2.54217 84.2017 2.96449 83.3402L0.719718 82.2398L2.96449 83.3402L8.28977 72.4773C9.07049 70.8847 9.26154 69.067 8.82899 67.3469L5.87862 55.6142C5.64464 54.6837 5.96381 53.7014 6.70002 53.0861L15.9833 45.3283L14.3801 43.41L15.9833 45.3283C17.3442 44.191 18.2581 42.6081 18.5626 40.8608L20.6394 28.9424C20.8041 27.9972 21.4952 27.2297 22.418 26.9671L34.0541 23.6558C35.76 23.1703 37.2386 22.096 38.2275 20.6236L44.9724 10.5803C45.5073 9.78384 46.4509 9.36374 47.4007 9.49918L59.3776 11.207C61.1335 11.4574 62.9212 11.0774 64.4235 10.1345L63.0944 8.017L64.4235 10.1344L74.6703 3.70286C75.4829 3.1928 76.5158 3.1928 77.3284 3.70286L87.5752 10.1345C89.0774 11.0774 90.8652 11.4574 92.6211 11.207L104.598 9.49918C105.548 9.36374 106.491 9.78384 107.026 10.5803L113.771 20.6236C114.76 22.096 116.239 23.1703 117.945 23.6558L129.581 26.9671C130.503 27.2297 131.195 27.9972 131.359 28.9424L133.436 40.8608C133.741 42.6081 134.654 44.191 136.015 45.3283L145.299 53.0861C146.035 53.7014 146.354 54.6837 146.12 55.6142L143.17 67.3469C142.737 69.067 142.928 70.8847 143.709 72.4773L149.034 83.3402C149.456 84.2017 149.349 85.2289 148.756 85.9837L141.289 95.5021C140.194 96.8975 139.629 98.6358 139.695 100.408L140.141 112.498C140.177 113.457 139.66 114.351 138.812 114.8L128.119 120.458C126.551 121.288 125.328 122.646 124.667 124.292L120.158 135.518C119.8 136.408 118.964 137.015 118.007 137.08L105.937 137.9C104.167 138.02 102.498 138.764 101.224 139.998L92.5387 148.42C91.8499 149.088 90.8396 149.302 89.9387 148.972L78.5787 144.812C76.9132 144.202 75.0854 144.202 73.42 144.812L62.06 148.972C61.159 149.302 60.1487 149.088 59.4599 148.42L50.7743 139.998Z" fill="#FAFBFB" stroke="#586CF8" stroke-width="5"/>
<path d="M84.3787 77.127V95.2479H102.754V113.623H47.9844V40.6353H66.2578V95.2479H75.2886V77.127H84.3744H84.3787ZM102.555 77.127V58.752H93.4688V40.6311H75.2928V49.8186H84.3787V77.127H102.555ZM111.64 40.377H102.555V58.752H111.64V40.377Z" fill="#586CF8"/>
</svg>
