<svg width="148" height="148" viewBox="0 0 148 148" fill="none" xmlns="http://www.w3.org/2000/svg">
<path d="M74 148C114.869 148 148 114.869 148 74C148 33.1309 114.869 0 74 0C33.1309 0 0 33.1309 0 74C0 114.869 33.1309 148 74 148Z" fill="#EAEDF2"/>
<g clip-path="url(#clip0_1374_12959)">
<path d="M73.9907 24.667L73.3174 26.9148V92.1408L73.9907 92.8009L104.815 74.9042L73.9907 24.667Z" fill="#343434"/>
<path d="M73.9909 24.667L43.1667 74.9042L73.9909 92.8012V61.1424V24.667Z" fill="#8C8C8C"/>
<path d="M73.9907 98.5333L73.6113 98.9876V122.223L73.9907 123.311L104.833 80.6455L73.9907 98.5333Z" fill="#3C3C3B"/>
<path d="M73.9909 123.311V98.5333L43.1667 80.6455L73.9909 123.311Z" fill="#8C8C8C"/>
<path d="M73.9907 92.8009L104.814 74.9043L73.9907 61.1426V92.8009Z" fill="#141414"/>
<path d="M43.167 74.9043L73.9907 92.8008V61.1426L43.167 74.9043Z" fill="#393939"/>
</g>
<defs>
<clipPath id="clip0_1374_12959">
<rect width="61.6667" height="98.6667" fill="white" transform="translate(43.1667 24.667)"/>
</clipPath>
</defs>
</svg>
