<svg width="557" height="488" viewBox="0 0 557 488" fill="none"
  xmlns="http://www.w3.org/2000/svg">
  <mask id="mask0_1361_11609" style="mask-type:alpha" maskUnits="userSpaceOnUse" x="0" y="66" width="104" height="104">
    <rect y="66" width="104" height="104" fill="#D9D9D9"/>
  </mask>
  <g mask="url(#mask0_1361_11609)">
    <path d="M47.6654 152.669V99.9109L23.3987 124.178L17.332 118.003L51.9987 83.3359L86.6654 118.003L80.5987 124.178L56.332 99.9109V152.669H47.6654Z" fill="#B5BECA"/>
  </g>
  <mask id="mask1_1361_11609" style="mask-type:alpha" maskUnits="userSpaceOnUse" x="393" y="132" width="164" height="165">
    <rect x="393" y="132.996" width="164" height="164" fill="#D9D9D9"/>
  </mask>
  <g mask="url(#mask1_1361_11609)">
    <path d="M468.164 269.667V186.471L429.898 224.738L420.331 215.001L474.998 160.334L529.664 215.001L520.098 224.738L481.831 186.471V269.667H468.164Z" fill="#B5BECA"/>
  </g>
  <mask id="mask2_1361_11609" style="mask-type:alpha" maskUnits="userSpaceOnUse" x="287" y="12" width="164" height="164">
    <rect x="287" y="12" width="164" height="164" fill="#D9D9D9"/>
  </mask>
  <g mask="url(#mask2_1361_11609)">
    <path d="M362.164 148.671V65.4754L323.898 103.742L314.331 94.0046L368.998 39.3379L423.664 94.0046L414.098 103.742L375.831 65.4754V148.671H362.164Z" fill="#F6F8FE"/>
  </g>
  <mask id="mask3_1361_11609" style="mask-type:alpha" maskUnits="userSpaceOnUse" x="-20" y="176" width="164" height="164">
    <rect x="-20" y="176" width="164" height="164" fill="#D9D9D9"/>
  </mask>
  <g mask="url(#mask3_1361_11609)">
    <path d="M55.1644 312.671V229.475L16.8977 267.742L7.33105 258.005L61.9977 203.338L116.664 258.005L107.098 267.742L68.8311 229.475V312.671H55.1644Z" fill="#F6F8FE"/>
  </g>
  <mask id="mask4_1361_11609" style="mask-type:alpha" maskUnits="userSpaceOnUse" x="217" y="334" width="164" height="164">
    <rect x="217" y="334" width="164" height="164" fill="#D9D9D9"/>
  </mask>
  <g mask="url(#mask4_1361_11609)">
    <path d="M292.164 470.671V387.475L253.898 425.742L244.331 416.005L298.998 361.338L353.664 416.005L344.098 425.742L305.831 387.475V470.671H292.164Z" fill="#F6F8FE"/>
  </g>
  <mask id="mask5_1361_11609" style="mask-type:alpha" maskUnits="userSpaceOnUse" x="116" y="-22" width="134" height="134">
    <rect x="116" y="-22" width="134" height="134" fill="#D9D9D9"/>
  </mask>
  <g mask="url(#mask5_1361_11609)">
    <path d="M177.415 89.6702V21.6932L146.149 52.9598L138.332 45.0036L182.999 0.336914L227.665 45.0036L219.849 52.9598L188.582 21.6932V89.6702H177.415Z" fill="#F6F8FE"/>
  </g>
  <path d="M94.0245 210.638L91.7797 209.538L94.0245 210.638C94.8052 209.046 94.9963 207.228 94.5637 205.508L86.5511 173.644C86.3171 172.713 86.6362 171.731 87.3725 171.116L112.584 150.047C113.945 148.91 114.859 147.327 115.163 145.58L120.804 113.211C120.968 112.266 121.659 111.499 122.582 111.236L154.183 102.243C155.889 101.758 157.368 100.684 158.357 99.2111L176.675 71.9355C177.21 71.139 178.153 70.7189 179.103 70.8543L211.63 75.4924C213.386 75.7428 215.174 75.3628 216.676 74.4198L244.504 56.9529C245.317 56.4428 246.35 56.4428 247.162 56.9529L274.991 74.4198C276.493 75.3627 278.281 75.7428 280.037 75.4924L312.564 70.8543C313.513 70.7189 314.457 71.139 314.992 71.9355L333.31 99.2111L335.385 97.8173L333.31 99.2111C334.299 100.684 335.777 101.758 337.483 102.243L369.085 111.236C370.007 111.499 370.698 112.266 370.863 113.211L376.503 145.58C376.808 147.327 377.722 148.91 379.083 150.047L404.294 171.116C405.03 171.731 405.35 172.713 405.116 173.644L397.103 205.508C396.67 207.228 396.861 209.046 397.642 210.638L412.105 240.14C412.527 241.001 412.419 242.028 411.827 242.783L391.547 268.633C390.452 270.029 389.887 271.767 389.953 273.54L391.165 306.373C391.201 307.332 390.684 308.226 389.836 308.675L360.795 324.042C359.227 324.871 358.004 326.229 357.343 327.875L345.097 358.363C344.739 359.254 343.903 359.861 342.946 359.926L310.166 362.152C308.396 362.272 306.726 363.015 305.453 364.25L281.864 387.121C281.176 387.789 280.165 388.004 279.264 387.674L248.413 376.374C246.747 375.764 244.919 375.764 243.254 376.374L212.402 387.674C211.501 388.004 210.491 387.789 209.802 387.121L186.214 364.25C184.94 363.015 183.271 362.272 181.501 362.152L148.721 359.926C147.763 359.861 146.928 359.254 146.57 358.363L134.323 327.875C133.662 326.229 132.439 324.871 130.872 324.042L101.831 308.675C100.982 308.226 100.466 307.332 100.501 306.373L101.714 273.54C101.78 271.767 101.215 270.029 100.12 268.633L79.8399 242.783C79.2477 242.028 79.1397 241.001 79.562 240.14L94.0245 210.638Z" fill="#FAFBFB" stroke="#FF4E4E" stroke-width="5"/>
  <path fill-rule="evenodd" clip-rule="evenodd" d="M305.356 306.692C309.027 298.359 306.398 289.028 303.881 280.088C301.349 271.1 298.93 262.509 303.132 255.725C305.378 252.099 308.528 248.319 311.976 244.183L311.976 244.183C321.396 232.881 333.034 218.917 334.507 198.156C335.249 187.63 333.73 180.828 326.004 169.288C299.941 130.336 217.87 99.3006 184.3 122.323C178.806 126.088 174.899 129.036 168.422 134.95C155.292 146.932 152.318 159.262 155.399 173.687C155.555 174.416 155.728 175.252 155.923 176.191C159.581 193.835 170.756 247.732 214.604 304.383C241.635 336.463 249.891 334.57 256.783 332.99C257.386 332.852 257.978 332.716 258.572 332.605C265.953 331.231 297.991 323.409 305.358 306.704L305.356 306.692ZM288.852 301.016C275.497 312.279 262.398 306.383 241.831 281.963C221.263 257.543 158.504 167.508 192.766 138.617C227.041 109.724 291.521 151.173 311.611 175.007C331.696 198.848 308.309 223.094 294.542 234.698C287.606 240.544 289.603 254.47 291.586 268.291C293.538 281.904 295.476 295.416 288.849 301.004L288.852 301.016ZM211.057 221.614L251.949 244.876L292.617 221.14L252.118 277.419L211.057 221.614ZM208.794 209.842L252.198 144.223L294.724 209.343L251.888 234.367L208.794 209.842ZM280.657 290.672C290.161 284.679 279.073 254.828 279.073 254.828L279.071 254.817L258.958 283.054C258.958 283.054 271.153 296.665 280.657 290.672ZM243.501 141.02C243.501 141.02 204.023 134.199 195.492 149.276C185.188 167.491 201.844 201.78 201.844 201.78L243.501 141.02ZM309.824 189.554C309.305 177.528 270.023 152.631 270.023 152.631L302.443 204.656C302.443 204.656 310.343 201.581 309.824 189.554Z" fill="#FF4E4E"/>
  <rect x="250.487" y="284.991" width="257.714" height="117.143" rx="30" fill="black"/>
  <path d="M293.056 325.687V338.711H305.784V348.479H293.056V361.651H282.548V348.479H269.82V338.711H282.548V325.687H293.056ZM328.205 314.809C338.861 314.809 345.151 320.433 345.151 330.571C345.151 339.673 340.415 345.593 335.235 351.143L326.133 360.837H345.447V370.975H311.259V362.021L326.503 345.223C331.831 339.451 333.681 336.565 333.681 331.089C333.681 327.241 331.757 324.947 328.427 324.947C324.283 324.947 322.655 327.833 322.581 332.717L311.185 332.051C311.333 321.321 317.475 314.809 328.205 314.809ZM371.431 314.809C383.715 314.809 392.373 324.873 392.373 343.299C392.373 361.651 383.715 371.789 371.431 371.789C358.999 371.789 350.415 361.651 350.415 343.299C350.415 324.873 358.999 314.809 371.431 314.809ZM371.431 324.947C364.919 324.947 362.033 331.311 362.033 343.299C362.033 355.287 364.919 361.651 371.431 361.651C377.869 361.651 380.755 355.287 380.755 343.299C380.755 331.311 377.869 324.947 371.431 324.947ZM410.394 314.809C417.942 314.809 423.418 320.285 423.418 328.721C423.418 337.083 417.942 342.633 410.394 342.633C402.846 342.633 397.296 337.083 397.296 328.721C397.296 320.285 402.846 314.809 410.394 314.809ZM451.464 315.623L414.982 370.975H404.548L441.03 315.623H451.464ZM410.394 322.357C407.286 322.357 405.214 324.651 405.214 328.721C405.214 332.717 407.286 335.159 410.394 335.159C413.428 335.159 415.5 332.791 415.5 328.721C415.5 324.651 413.502 322.357 410.394 322.357ZM445.692 343.965C453.24 343.965 458.716 349.367 458.716 357.803C458.716 366.239 453.24 371.789 445.692 371.789C438.144 371.789 432.594 366.239 432.594 357.803C432.594 349.367 438.144 343.965 445.692 343.965ZM445.692 351.439C442.51 351.439 440.512 353.807 440.512 357.803C440.512 361.873 442.584 364.241 445.692 364.241C448.8 364.241 450.798 361.947 450.798 357.803C450.798 353.807 448.8 351.439 445.692 351.439ZM477.197 314.439L476.975 323.467L485.485 320.507L487.335 326.131L478.751 328.869L484.153 335.899L479.343 339.451L474.237 332.125L469.057 339.525L464.247 335.899L469.649 328.869L461.065 326.131L462.915 320.507L471.425 323.467L471.203 314.439H477.197Z" fill="white"/>
  <mask id="mask6_1361_11609" style="mask-type:alpha" maskUnits="userSpaceOnUse" x="35" y="274" width="214" height="214">
    <rect x="35" y="274" width="214" height="214" fill="#D9D9D9"/>
  </mask>
  <g mask="url(#mask6_1361_11609)">
    <path d="M103.417 442.667V334.106L53.4833 384.04L41 371.333L112.333 300L183.667 371.333L171.183 384.04L121.25 334.106V442.667H103.417Z" fill="#B5BECA"/>
  </g>
</svg>
