<svg width="122" height="123" viewBox="0 0 122 123" fill="none" xmlns="http://www.w3.org/2000/svg">
<mask id="mask0_208_43346" style="mask-type:alpha" maskUnits="userSpaceOnUse" x="0" y="0" width="122" height="123">
<rect x="0.426758" y="0.663086" width="121.41" height="121.41" fill="#D9D9D9"/>
</mask>
<g mask="url(#mask0_208_43346)">
<path d="M104.003 118.532L89.0796 103.608C85.0326 106.306 80.6694 108.372 75.9901 109.805C71.3108 111.239 66.3574 111.955 61.13 111.955C54.1321 111.955 47.5558 110.627 41.401 107.972C35.2462 105.316 29.8923 101.711 25.3395 97.1585C20.7866 92.6056 17.1823 87.2518 14.5264 81.097C11.8706 74.9422 10.5427 68.3658 10.5427 61.3679C10.5427 56.1405 11.2593 51.1872 12.6926 46.5079C14.1259 41.8285 16.1916 37.4654 18.8896 33.4184L3.83984 18.3686L11.0485 11.1599L111.212 111.323L104.003 118.532ZM61.13 101.838C64.9241 101.838 68.5285 101.332 71.9431 100.32C75.3577 99.3084 78.5827 97.9173 81.6179 96.1467L62.0153 76.5441L54.0478 84.6381L32.5482 63.1385L39.6304 56.0562L54.0478 70.4736L54.9331 69.4619L26.3512 40.88C24.5807 43.9152 23.1895 47.1402 22.1778 50.5548C21.166 53.9695 20.6601 57.5738 20.6601 61.3679C20.6601 72.5814 24.6017 82.1298 32.4849 90.013C40.3681 97.8962 49.9165 101.838 61.13 101.838ZM103.497 89.1909L96.0353 81.7293C97.8059 78.7784 99.176 75.5956 100.146 72.1809C101.115 68.7663 101.6 65.1619 101.6 61.3679C101.6 50.1544 97.6584 40.606 89.7752 32.7228C81.892 24.8396 72.3436 20.898 61.13 20.898C57.336 20.898 53.7316 21.3828 50.317 22.3524C46.9023 23.322 43.7196 24.692 40.7686 26.4626L33.307 19.001C37.354 16.3873 41.7171 14.3638 46.3965 12.9305C51.0758 11.4972 55.987 10.7805 61.13 10.7805C68.128 10.7805 74.7043 12.1084 80.8591 14.7643C87.0139 17.4201 92.3678 21.0245 96.9206 25.5773C101.473 30.1302 105.078 35.484 107.734 41.6388C110.39 47.7936 111.717 54.37 111.717 61.3679C111.717 66.5109 111.001 71.4221 109.567 76.1015C108.134 80.7808 106.111 85.144 103.497 89.1909ZM76.5592 62.1267L69.477 55.0445L82.6297 41.8918L89.7119 48.974L76.5592 62.1267Z" fill="#FAFBFB"/>
</g>
</svg>
