<svg width="365" height="714" viewBox="0 0 365 714" fill="none" xmlns="http://www.w3.org/2000/svg">
<g clip-path="url(#clip0_186_27990)">
<path d="M79.6411 416.508C79.6411 417.683 80.5812 418.639 81.7719 418.655C82.9627 418.655 83.9342 417.714 83.9499 416.524C83.9655 414.988 84.0126 413.437 84.0596 411.902C84.1066 410.711 83.1821 409.708 81.9913 409.677C80.8005 409.63 79.7977 410.57 79.7664 411.745C79.7037 413.327 79.6724 414.894 79.6568 416.477L79.6568 416.508L79.6411 416.508ZM79.7351 425.862C79.7351 425.862 79.7351 425.909 79.7351 425.94C79.7821 427.507 79.8604 429.09 79.9388 430.656C80.0014 431.847 81.0198 432.756 82.2106 432.693C83.4014 432.631 84.2946 431.628 84.2475 430.421C84.1692 428.886 84.0908 427.335 84.0438 425.799C84.0125 424.608 83.0097 423.684 81.8189 423.715C80.6595 423.747 79.7351 424.702 79.7351 425.862ZM80.2991 402.501C80.2991 403.613 81.1452 404.553 82.2733 404.647C83.4641 404.741 84.4982 403.864 84.5922 402.673C84.7176 401.138 84.8586 399.602 85.0153 398.067C85.1406 396.891 84.2789 395.826 83.0881 395.701C81.8973 395.575 80.8475 396.437 80.7222 397.628C80.5655 399.195 80.4088 400.761 80.2835 402.328C80.2835 402.391 80.2835 402.454 80.2835 402.501L80.2991 402.501ZM80.6595 439.869C80.6595 439.869 80.6595 440.01 80.6595 440.089C80.8162 441.655 80.9885 443.222 81.1922 444.789C81.3332 445.964 82.4143 446.81 83.5895 446.669C84.7646 446.528 85.6107 445.431 85.4696 444.272C85.2816 442.737 85.1093 441.201 84.9526 439.666C84.8272 438.475 83.7775 437.613 82.5867 437.738C81.4743 437.848 80.6438 438.788 80.6438 439.885L80.6595 439.869ZM81.8973 388.556C81.8973 389.606 82.665 390.53 83.7305 390.687C84.9056 390.859 86.0023 390.044 86.1747 388.869C86.4097 387.349 86.6447 385.814 86.9111 384.294C87.0991 383.119 86.3157 382.007 85.1563 381.803C83.9811 381.599 82.8687 382.383 82.665 383.558C82.3987 385.109 82.148 386.66 81.9129 388.227C81.8973 388.337 81.8816 388.446 81.8816 388.556L81.8973 388.556ZM82.5397 453.767C82.5397 453.892 82.5397 454.002 82.571 454.127C82.8374 455.679 83.1194 457.23 83.4171 458.781C83.6521 459.956 84.7803 460.708 85.9397 460.489C87.1148 460.254 87.8668 459.125 87.6475 457.966C87.3498 456.446 87.0678 454.926 86.8171 453.407C86.6134 452.231 85.501 451.448 84.3259 451.652C83.2761 451.824 82.5397 452.749 82.5397 453.767ZM84.4356 374.752C84.4356 375.739 85.1249 376.632 86.1277 376.852C87.2872 377.102 88.4466 376.366 88.6973 375.207C89.0263 373.702 89.371 372.198 89.7471 370.694C90.0291 369.55 89.3241 368.375 88.1646 368.093C87.0052 367.811 85.8457 368.516 85.5637 369.676C85.1876 371.211 84.843 372.747 84.4982 374.282C84.4669 374.439 84.4512 374.596 84.4512 374.752L84.4356 374.752ZM85.3756 467.508C85.3756 467.68 85.3913 467.853 85.4383 468.025C85.8143 469.561 86.206 471.08 86.6134 472.616C86.9268 473.76 88.1019 474.449 89.2457 474.136C90.3895 473.822 91.0789 472.631 90.7655 471.503C90.3738 470.015 89.9821 468.511 89.6217 467.022C89.3397 465.863 88.1802 465.158 87.0208 465.44C86.0337 465.675 85.3756 466.568 85.3756 467.524L85.3756 467.508ZM87.9139 361.152C87.9139 362.092 88.5249 362.938 89.465 363.22C90.6088 363.549 91.7996 362.891 92.1443 361.763C92.583 360.291 93.0217 358.802 93.4918 357.345C93.8521 356.217 93.2254 354.995 92.0973 354.634C90.9692 354.274 89.7471 354.901 89.3867 356.029C88.9167 357.533 88.4466 359.037 88.0079 360.557C87.9452 360.761 87.9139 360.964 87.9139 361.168L87.9139 361.152ZM89.183 481.014C89.183 481.233 89.2143 481.453 89.2927 481.672C89.7784 483.176 90.2641 484.68 90.7811 486.169C91.1729 487.297 92.395 487.892 93.5231 487.501C94.6512 487.109 95.2466 485.887 94.8549 484.759C94.3535 483.302 93.8678 481.844 93.3977 480.372C93.0374 479.243 91.8309 478.617 90.6871 478.977C89.7784 479.275 89.183 480.121 89.183 481.03L89.183 481.014ZM92.3323 347.834C92.3323 348.712 92.865 349.526 93.7425 349.855C94.8549 350.263 96.0927 349.699 96.5157 348.586C97.0484 347.145 97.5968 345.703 98.1766 344.262C98.6153 343.149 98.0826 341.896 96.9701 341.457C95.8577 341.019 94.6042 341.551 94.1655 342.664C93.5857 344.137 93.0217 345.609 92.4733 347.082C92.3793 347.333 92.348 347.584 92.348 347.834L92.3323 347.834ZM93.9305 494.222C93.9305 494.489 93.9775 494.755 94.0871 495.021C94.6669 496.479 95.278 497.936 95.9047 499.393C96.3747 500.49 97.6438 500.991 98.7406 500.521C99.8374 500.051 100.339 498.782 99.8687 497.685C99.2577 496.259 98.6623 494.833 98.0982 493.408C97.6595 492.295 96.406 491.762 95.2936 492.201C94.4475 492.53 93.9461 493.345 93.9461 494.207L93.9305 494.222ZM97.6438 334.845C97.6438 335.66 98.1139 336.443 98.9129 336.804C99.9941 337.29 101.279 336.804 101.765 335.723C102.407 334.313 103.049 332.918 103.723 331.524C104.24 330.443 103.786 329.158 102.72 328.656C101.655 328.155 100.354 328.594 99.8531 329.675C99.1637 331.101 98.5056 332.526 97.8632 333.952C97.7378 334.234 97.6752 334.548 97.6752 334.83L97.6438 334.845ZM99.618 507.055C99.618 507.368 99.6807 507.697 99.8374 507.995C100.527 509.42 101.232 510.831 101.968 512.225C102.517 513.275 103.817 513.698 104.867 513.149C105.917 512.601 106.34 511.301 105.791 510.251C105.086 508.872 104.381 507.509 103.707 506.114C103.19 505.049 101.89 504.595 100.824 505.127C100.057 505.503 99.618 506.271 99.618 507.07L99.618 507.055ZM103.864 322.279C103.864 323.047 104.272 323.784 104.992 324.175C106.042 324.739 107.342 324.348 107.907 323.298C108.643 321.95 109.395 320.603 110.147 319.255C110.727 318.221 110.382 316.905 109.348 316.31C108.314 315.714 106.998 316.075 106.402 317.109C105.619 318.472 104.851 319.851 104.115 321.23C103.942 321.559 103.848 321.903 103.848 322.248L103.864 322.279ZM106.214 519.432C106.214 519.793 106.308 520.169 106.512 520.514C107.311 521.877 108.11 523.24 108.941 524.572C109.567 525.59 110.899 525.903 111.902 525.277C112.92 524.65 113.234 523.318 112.607 522.315C111.792 520.999 111.009 519.667 110.225 518.336C109.63 517.302 108.314 516.957 107.28 517.552C106.59 517.96 106.214 518.68 106.214 519.417L106.214 519.432ZM110.962 310.184C110.962 310.889 111.307 311.594 111.965 312.001C112.967 312.643 114.299 312.346 114.942 311.343C115.772 310.043 116.618 308.758 117.48 307.473C118.138 306.486 117.887 305.154 116.884 304.48C115.897 303.822 114.565 304.073 113.892 305.06C113.014 306.361 112.153 307.692 111.307 309.008C111.071 309.369 110.962 309.761 110.962 310.168L110.962 310.184ZM113.719 531.293C113.719 531.716 113.845 532.139 114.095 532.515C114.989 533.816 115.897 535.116 116.822 536.385C117.527 537.357 118.859 537.561 119.83 536.871C120.801 536.166 121.005 534.834 120.316 533.863C119.407 532.609 118.514 531.34 117.652 530.071C116.978 529.084 115.631 528.833 114.66 529.507C114.048 529.93 113.719 530.604 113.719 531.293ZM118.921 298.652C118.921 299.31 119.219 299.952 119.783 300.375C120.739 301.08 122.086 300.892 122.791 299.937C123.716 298.699 124.64 297.477 125.596 296.27C126.332 295.33 126.16 293.983 125.236 293.246C124.295 292.51 122.948 292.682 122.212 293.607C121.24 294.844 120.284 296.098 119.344 297.351C119.062 297.743 118.921 298.197 118.921 298.636L118.921 298.652ZM122.086 542.574C122.086 543.044 122.243 543.53 122.556 543.922C123.543 545.16 124.546 546.366 125.565 547.588C126.332 548.497 127.695 548.607 128.604 547.839C129.513 547.071 129.623 545.708 128.855 544.799C127.852 543.608 126.881 542.418 125.909 541.211C125.157 540.287 123.81 540.13 122.885 540.882C122.353 541.305 122.086 541.932 122.086 542.559L122.086 542.574ZM127.695 287.731C127.695 288.326 127.946 288.937 128.432 289.361C129.325 290.144 130.688 290.05 131.471 289.141C132.474 287.982 133.493 286.838 134.542 285.694C135.342 284.817 135.279 283.454 134.401 282.655C133.524 281.855 132.161 281.918 131.362 282.796C130.296 283.955 129.262 285.13 128.228 286.321C127.868 286.728 127.695 287.23 127.695 287.731ZM131.268 553.182C131.268 553.714 131.456 554.231 131.848 554.655C132.913 555.798 134.01 556.942 135.122 558.07C135.953 558.916 137.316 558.932 138.177 558.102C139.024 557.271 139.039 555.908 138.209 555.062C137.128 553.965 136.062 552.837 135.013 551.725C134.198 550.847 132.835 550.8 131.973 551.615C131.519 552.038 131.283 552.618 131.283 553.197L131.268 553.182ZM137.253 277.5C137.253 278.048 137.457 278.596 137.88 279.02C138.71 279.866 140.089 279.866 140.919 279.02C142.016 277.938 143.113 276.857 144.241 275.808C145.103 274.993 145.15 273.63 144.319 272.768C143.505 271.906 142.142 271.859 141.28 272.69C140.136 273.771 138.992 274.867 137.88 275.98C137.457 276.403 137.237 276.951 137.237 277.515L137.253 277.5ZM141.217 563.084C141.217 563.664 141.452 564.243 141.907 564.667C143.066 565.732 144.225 566.782 145.416 567.831C146.309 568.615 147.672 568.537 148.456 567.643C149.239 566.75 149.161 565.387 148.268 564.604C147.108 563.585 145.965 562.551 144.836 561.502C143.959 560.687 142.596 560.749 141.797 561.627C141.421 562.034 141.217 562.567 141.217 563.084ZM147.578 267.989C147.578 268.49 147.751 268.976 148.095 269.384C148.863 270.292 150.226 270.402 151.135 269.619C152.31 268.616 153.485 267.629 154.692 266.657C155.616 265.905 155.757 264.558 155.005 263.633C154.253 262.709 152.89 262.568 151.981 263.32C150.759 264.323 149.537 265.326 148.346 266.344C147.845 266.767 147.594 267.378 147.594 267.989L147.578 267.989ZM151.856 572.234C151.856 572.861 152.122 573.488 152.655 573.911C153.893 574.898 155.115 575.885 156.353 576.841C157.293 577.561 158.64 577.389 159.377 576.449C160.097 575.509 159.925 574.161 158.985 573.425C157.763 572.485 156.556 571.529 155.35 570.558C154.425 569.806 153.062 569.962 152.326 570.887C151.997 571.279 151.856 571.764 151.856 572.234ZM158.578 259.278C158.578 259.716 158.719 260.171 159.001 260.547C159.706 261.502 161.053 261.722 162.009 261.017C163.247 260.108 164.5 259.215 165.769 258.322C166.741 257.648 166.991 256.301 166.302 255.329C165.628 254.358 164.281 254.107 163.309 254.796C162.009 255.705 160.724 256.614 159.455 257.554C158.875 257.977 158.578 258.635 158.578 259.293L158.578 259.278ZM163.043 580.695C163.043 581.369 163.356 582.043 163.952 582.45C165.236 583.359 166.537 584.252 167.837 585.145C168.824 585.819 170.156 585.552 170.83 584.565C171.504 583.578 171.237 582.246 170.25 581.573C168.981 580.711 167.712 579.833 166.443 578.94C165.471 578.251 164.124 578.486 163.435 579.457C163.168 579.833 163.043 580.272 163.043 580.695ZM170.188 251.396C170.188 251.788 170.297 252.18 170.517 252.525C171.143 253.543 172.475 253.841 173.478 253.214L173.791 253.026C175.107 252.149 176.408 251.318 177.708 250.503C178.711 249.877 179.024 248.545 178.398 247.526C177.771 246.524 176.439 246.21 175.436 246.837C174.105 247.667 172.773 248.529 171.457 249.407L171.222 249.548C170.564 249.955 170.203 250.66 170.203 251.381L170.188 251.396ZM174.747 588.42C174.747 589.14 175.107 589.845 175.781 590.253C177.129 591.083 178.476 591.882 179.839 592.681C180.873 593.277 182.189 592.932 182.785 591.898C183.38 590.864 183.036 589.548 182.001 588.952C180.67 588.184 179.353 587.385 178.022 586.571C177.003 585.944 175.687 586.273 175.06 587.276C174.841 587.62 174.747 588.012 174.747 588.404L174.747 588.42ZM182.456 243.907C182.456 244.267 182.55 244.628 182.722 244.957C183.302 245.991 184.618 246.367 185.652 245.787C187 245.035 188.363 244.299 189.726 243.578C190.776 243.03 191.183 241.714 190.619 240.664C190.071 239.614 188.754 239.207 187.705 239.771C186.31 240.507 184.916 241.259 183.537 242.027C182.832 242.419 182.44 243.155 182.44 243.907L182.456 243.907ZM186.937 595.345C186.937 596.128 187.36 596.865 188.096 597.256C189.491 597.993 190.901 598.698 192.311 599.403C193.377 599.936 194.661 599.497 195.194 598.431C195.727 597.366 195.288 596.066 194.223 595.549C192.844 594.859 191.465 594.17 190.102 593.449C189.052 592.901 187.752 593.308 187.188 594.358C187.015 594.671 186.937 595.016 186.937 595.361L186.937 595.345ZM194.943 237.499C194.943 237.796 195.006 238.11 195.147 238.408C195.648 239.489 196.933 239.959 198.014 239.457C199.409 238.799 200.819 238.173 202.229 237.561C203.326 237.091 203.827 235.822 203.342 234.725C202.872 233.629 201.602 233.143 200.506 233.613C199.064 234.24 197.623 234.898 196.181 235.556C195.398 235.916 194.943 236.7 194.943 237.514L194.943 237.499ZM199.581 601.424C199.581 602.255 200.067 603.038 200.866 603.398C202.307 604.025 203.765 604.652 205.222 605.247C206.318 605.702 207.588 605.169 208.026 604.072C208.465 602.975 207.948 601.706 206.851 601.267C205.425 600.688 204.015 600.077 202.589 599.466C201.493 598.996 200.224 599.481 199.754 600.578C199.628 600.86 199.565 601.158 199.565 601.44L199.581 601.424ZM207.885 232.046C207.885 232.297 207.932 232.563 208.026 232.814C208.449 233.926 209.687 234.49 210.8 234.067C212.241 233.519 213.698 232.986 215.155 232.485C216.283 232.093 216.879 230.871 216.472 229.743C216.08 228.615 214.842 228.035 213.73 228.427C212.241 228.944 210.768 229.492 209.28 230.041C208.418 230.37 207.885 231.184 207.885 232.062L207.885 232.046ZM212.633 606.579C212.633 607.472 213.181 608.302 214.074 608.616C215.563 609.149 217.051 609.65 218.555 610.136C219.683 610.512 220.906 609.885 221.266 608.757C221.642 607.629 221.015 606.407 219.887 606.046C218.43 605.561 216.973 605.075 215.516 604.558C214.388 604.166 213.165 604.746 212.758 605.874C212.68 606.109 212.633 606.36 212.633 606.595L212.633 606.579ZM221.203 227.565C221.203 227.769 221.235 227.972 221.297 228.176C221.626 229.32 222.833 229.962 223.977 229.633C225.449 229.195 226.938 228.772 228.426 228.38C229.57 228.067 230.26 226.891 229.946 225.748C229.633 224.604 228.458 223.914 227.314 224.228C225.794 224.635 224.274 225.058 222.754 225.513C221.814 225.795 221.203 226.641 221.203 227.581L221.203 227.565ZM226.029 610.778C226.029 611.718 226.656 612.596 227.612 612.862C229.131 613.285 230.651 613.677 232.171 614.053C233.33 614.335 234.49 613.63 234.788 612.486C235.085 611.326 234.365 610.167 233.221 609.869C231.732 609.493 230.244 609.102 228.755 608.694C227.612 608.381 226.421 609.055 226.107 610.198C226.06 610.386 226.029 610.574 226.029 610.762L226.029 610.778ZM234.819 224.087C234.819 224.243 234.819 224.384 234.866 224.541C235.117 225.701 236.26 226.437 237.42 226.186C238.924 225.857 240.444 225.56 241.964 225.262C243.139 225.043 243.891 223.914 243.671 222.739C243.452 221.564 242.324 220.796 241.149 221.031C239.598 221.329 238.062 221.643 236.511 221.972C235.508 222.191 234.819 223.084 234.819 224.071L234.819 224.087ZM239.676 613.99C239.676 614.993 240.381 615.902 241.415 616.105C242.966 616.403 244.518 616.701 246.053 616.967C247.228 617.171 248.341 616.387 248.544 615.212C248.748 614.037 247.965 612.925 246.789 612.721C245.27 612.455 243.765 612.188 242.246 611.89C241.071 611.655 239.942 612.423 239.723 613.583C239.692 613.724 239.676 613.865 239.676 614.006L239.676 613.99ZM248.638 221.627C248.638 221.721 248.638 221.831 248.654 221.925C248.826 223.1 249.907 223.93 251.083 223.758C252.618 223.538 254.138 223.35 255.673 223.162C256.848 223.021 257.695 221.956 257.569 220.781C257.428 219.606 256.363 218.76 255.188 218.885C253.621 219.073 252.054 219.261 250.487 219.48C249.406 219.637 248.638 220.561 248.638 221.611L248.638 221.627ZM253.527 616.199C253.527 617.28 254.326 618.205 255.423 618.33C256.989 618.518 258.556 618.69 260.123 618.847C261.314 618.957 262.364 618.095 262.473 616.904C262.599 615.714 261.721 614.664 260.53 614.554C258.995 614.413 257.475 614.241 255.94 614.053C254.765 613.912 253.683 614.742 253.542 615.933C253.542 616.027 253.542 616.105 253.542 616.199L253.527 616.199ZM262.599 220.185C262.599 220.185 262.599 220.279 262.599 220.326C262.677 221.517 263.711 222.41 264.886 222.332C266.422 222.222 267.973 222.144 269.508 222.081C270.699 222.034 271.639 221.047 271.561 219.841C271.514 218.65 270.495 217.725 269.32 217.788C267.738 217.851 266.171 217.945 264.589 218.055C263.445 218.133 262.583 219.073 262.583 220.201L262.599 220.185ZM267.503 617.39C267.503 618.534 268.396 619.49 269.555 619.537C271.138 619.615 272.705 619.662 274.271 619.709C275.462 619.74 276.449 618.8 276.481 617.609C276.481 616.419 275.572 615.431 274.381 615.4C272.846 615.369 271.31 615.306 269.759 615.243C268.568 615.181 267.565 616.105 267.503 617.296C267.503 617.327 267.503 617.359 267.503 617.406L267.503 617.39ZM276.622 219.747C276.622 220.937 277.578 221.893 278.768 221.909C280.319 221.909 281.855 221.94 283.406 221.987C284.597 222.019 285.584 221.079 285.615 219.888C285.694 218.666 284.707 217.71 283.516 217.678C281.933 217.631 280.366 217.616 278.784 217.6C277.593 217.6 276.622 218.556 276.622 219.747ZM281.51 617.547L281.51 617.609C281.542 618.8 282.529 619.74 283.719 619.709C285.302 619.662 286.869 619.615 288.436 619.537C289.626 619.474 290.519 618.471 290.488 617.28C290.425 616.09 289.423 615.181 288.232 615.228C286.696 615.306 285.161 615.369 283.61 615.4C282.435 615.431 281.51 616.387 281.51 617.547ZM290.645 220.295C290.645 221.408 291.507 222.363 292.635 222.442C294.17 222.551 295.706 222.692 297.257 222.833C298.448 222.943 299.497 222.081 299.607 220.89C299.732 219.715 298.855 218.65 297.664 218.54C296.097 218.384 294.53 218.258 292.948 218.133C291.757 218.039 290.723 218.932 290.645 220.123C290.645 220.17 290.645 220.232 290.645 220.279L290.645 220.295ZM295.486 616.685C295.486 616.685 295.486 616.826 295.486 616.904C295.596 618.095 296.661 618.957 297.836 618.831C299.403 618.675 300.97 618.502 302.521 618.314C303.696 618.173 304.542 617.092 304.401 615.917C304.26 614.742 303.179 613.896 302.004 614.037C300.484 614.225 298.949 614.397 297.413 614.538C296.301 614.648 295.471 615.588 295.471 616.685L295.486 616.685ZM304.589 221.815C304.589 222.865 305.357 223.789 306.438 223.946C307.974 224.165 309.494 224.4 311.013 224.667C312.189 224.87 313.301 224.071 313.489 222.896C313.693 221.721 312.894 220.608 311.718 220.42C310.167 220.154 308.601 219.919 307.049 219.7C305.874 219.527 304.778 220.342 304.605 221.517C304.605 221.627 304.589 221.721 304.589 221.831L304.589 221.815ZM309.353 614.82C309.353 614.946 309.353 615.055 309.384 615.181C309.588 616.356 310.7 617.139 311.875 616.936C313.426 616.669 314.977 616.387 316.513 616.09C317.688 615.855 318.44 614.726 318.221 613.567C317.986 612.392 316.858 611.64 315.698 611.859C314.194 612.157 312.674 612.423 311.154 612.69C310.105 612.862 309.368 613.786 309.368 614.805L309.353 614.82ZM318.393 224.291C318.393 225.278 319.083 226.171 320.101 226.39C321.605 226.719 323.109 227.048 324.613 227.408C325.773 227.691 326.932 226.97 327.214 225.81C327.496 224.651 326.776 223.491 325.616 223.209C324.081 222.849 322.545 222.489 321.01 222.16C319.85 221.909 318.707 222.645 318.456 223.82C318.424 223.977 318.409 224.118 318.409 224.275L318.393 224.291ZM323.062 611.969C323.062 612.141 323.078 612.314 323.125 612.486C323.407 613.645 324.566 614.35 325.726 614.068C327.261 613.692 328.781 613.301 330.301 612.893C331.445 612.58 332.134 611.405 331.821 610.245C331.507 609.102 330.332 608.412 329.173 608.726C327.684 609.133 326.196 609.509 324.692 609.869C323.705 610.104 323.047 610.997 323.047 611.953L323.062 611.969ZM331.993 227.69C331.993 228.631 332.604 229.492 333.56 229.759C335.048 230.182 336.521 230.636 337.994 231.091C339.138 231.451 340.344 230.808 340.689 229.68C341.049 228.537 340.407 227.33 339.279 226.985C337.775 226.515 336.271 226.061 334.751 225.622C333.607 225.293 332.416 225.951 332.087 227.095C332.025 227.299 332.009 227.487 332.009 227.69L331.993 227.69ZM336.553 608.161C336.553 608.381 336.584 608.6 336.662 608.82C337.023 609.948 338.229 610.574 339.373 610.214C340.877 609.728 342.365 609.243 343.854 608.726C344.982 608.334 345.577 607.112 345.186 605.984C344.794 604.855 343.572 604.26 342.444 604.652C340.987 605.153 339.53 605.639 338.057 606.109C337.148 606.407 336.553 607.253 336.553 608.161ZM345.342 232.015C345.342 232.892 345.891 233.723 346.768 234.036C348.225 234.553 349.667 235.102 351.108 235.666C352.221 236.089 353.459 235.54 353.897 234.443C354.336 233.331 353.772 232.093 352.675 231.655C351.202 231.09 349.73 230.526 348.257 229.994C347.144 229.586 345.907 230.166 345.499 231.278C345.405 231.514 345.374 231.764 345.374 232.015L345.342 232.015ZM349.745 603.445C349.745 603.712 349.792 603.978 349.902 604.244C350.341 605.357 351.594 605.89 352.707 605.451C354.164 604.871 355.621 604.276 357.078 603.649C358.175 603.179 358.692 601.926 358.222 600.829C357.752 599.732 356.498 599.215 355.401 599.685C353.976 600.28 352.55 600.876 351.124 601.44C350.278 601.769 349.761 602.584 349.761 603.445L349.745 603.445ZM358.363 237.232C358.363 238.063 358.848 238.846 359.648 239.207C361.058 239.833 362.468 240.46 363.862 241.118C364.943 241.619 366.228 241.165 366.73 240.084C367.231 239.003 366.777 237.718 365.695 237.217C364.27 236.543 362.828 235.901 361.387 235.258C360.306 234.773 359.021 235.258 358.551 236.355C358.425 236.637 358.363 236.935 358.363 237.217L358.363 237.232ZM362.593 597.82C362.593 598.134 362.656 598.447 362.813 598.745C363.33 599.826 364.614 600.265 365.68 599.763C367.106 599.09 368.516 598.384 369.926 597.679C370.991 597.147 371.414 595.846 370.866 594.781C370.333 593.715 369.033 593.292 367.967 593.841C366.589 594.546 365.21 595.22 363.815 595.893C363.048 596.269 362.593 597.037 362.593 597.836L362.593 597.82ZM370.991 243.327C370.991 244.095 371.414 244.847 372.151 245.239C373.514 245.96 374.877 246.68 376.224 247.432C377.259 248.012 378.575 247.636 379.154 246.586C379.734 245.552 379.358 244.236 378.308 243.656C376.93 242.889 375.551 242.152 374.156 241.416C373.107 240.867 371.806 241.275 371.242 242.325C371.07 242.638 370.991 242.983 370.991 243.327ZM375.034 591.334C375.034 591.694 375.128 592.055 375.316 592.384C375.895 593.418 377.212 593.778 378.246 593.198C379.624 592.415 380.988 591.632 382.335 590.832C383.354 590.221 383.698 588.905 383.087 587.887C382.476 586.868 381.16 586.524 380.142 587.135C378.81 587.918 377.478 588.702 376.13 589.454C375.425 589.845 375.034 590.582 375.034 591.334ZM383.197 250.253C383.197 250.973 383.557 251.678 384.215 252.086C385.531 252.901 386.832 253.715 388.132 254.561C389.135 255.204 390.467 254.922 391.109 253.919C391.752 252.916 391.47 251.584 390.467 250.942C389.151 250.08 387.819 249.25 386.472 248.42C385.453 247.793 384.137 248.106 383.51 249.125C383.291 249.469 383.197 249.861 383.197 250.253ZM387.02 584.017C387.02 584.424 387.13 584.832 387.38 585.208C388.038 586.195 389.37 586.477 390.357 585.819C391.673 584.957 392.974 584.064 394.274 583.171C395.246 582.497 395.496 581.149 394.823 580.178C394.149 579.207 392.801 578.956 391.83 579.63C390.561 580.507 389.276 581.369 387.991 582.215C387.365 582.622 387.02 583.312 387.02 584.017ZM394.885 258.008C394.885 258.682 395.199 259.34 395.794 259.763C397.048 260.656 398.285 261.565 399.523 262.49C400.479 263.21 401.826 263.007 402.531 262.067C403.252 261.111 403.048 259.763 402.108 259.058C400.855 258.118 399.57 257.178 398.301 256.269C397.33 255.58 395.982 255.799 395.293 256.771C395.026 257.147 394.885 257.585 394.885 258.024L394.885 258.008ZM398.458 575.901C398.458 576.355 398.599 576.809 398.896 577.201C399.617 578.141 400.965 578.329 401.92 577.608C403.174 576.653 404.427 575.681 405.649 574.71C406.574 573.973 406.73 572.61 405.994 571.686C405.258 570.761 403.895 570.605 402.97 571.341C401.764 572.297 400.542 573.253 399.319 574.177C398.755 574.6 398.473 575.243 398.473 575.901L398.458 575.901ZM405.994 266.563C405.994 267.19 406.26 267.801 406.777 268.224C407.968 269.211 409.143 270.198 410.303 271.217C411.196 272 412.559 271.89 413.342 270.997C414.126 270.104 414.016 268.741 413.123 267.958C411.932 266.924 410.726 265.905 409.519 264.902C408.595 264.15 407.248 264.276 406.48 265.184C406.151 265.592 405.994 266.078 405.994 266.548L405.994 266.563ZM409.331 567.032C409.331 567.534 409.504 568.035 409.864 568.443C410.648 569.336 412.011 569.43 412.904 568.646C414.095 567.612 415.27 566.562 416.429 565.497C417.307 564.698 417.369 563.335 416.57 562.457C415.771 561.58 414.408 561.517 413.53 562.316C412.387 563.366 411.243 564.385 410.083 565.403C409.598 565.826 409.347 566.421 409.347 567.032L409.331 567.032ZM416.476 275.87C416.476 276.434 416.695 277.014 417.15 277.437C418.262 278.502 419.359 279.568 420.456 280.665C421.302 281.511 422.665 281.511 423.495 280.665C424.342 279.819 424.342 278.455 423.495 277.625C422.383 276.513 421.255 275.416 420.111 274.319C419.249 273.504 417.886 273.536 417.071 274.397C416.68 274.82 416.476 275.353 416.476 275.886L416.476 275.87ZM419.563 557.443C419.563 557.992 419.766 558.556 420.189 558.963C421.036 559.809 422.399 559.809 423.229 558.963C424.342 557.851 425.438 556.723 426.535 555.579C427.35 554.717 427.318 553.354 426.457 552.539C425.595 551.725 424.232 551.756 423.417 552.618C422.352 553.73 421.271 554.843 420.189 555.939C419.766 556.362 419.563 556.911 419.563 557.459L419.563 557.443ZM426.269 285.898C426.269 286.415 426.457 286.932 426.833 287.339C427.867 288.483 428.885 289.627 429.904 290.786C430.687 291.679 432.05 291.789 432.943 291.006C433.852 290.222 433.946 288.859 433.163 287.966C432.129 286.775 431.095 285.6 430.029 284.441C429.23 283.563 427.867 283.501 426.989 284.3C426.519 284.723 426.284 285.302 426.284 285.898L426.269 285.898ZM429.12 547.165C429.12 547.761 429.371 548.372 429.857 548.795C430.75 549.578 432.113 549.484 432.896 548.575C433.93 547.385 434.949 546.178 435.952 544.972C436.719 544.063 436.578 542.7 435.67 541.932C434.761 541.18 433.398 541.305 432.63 542.214C431.643 543.405 430.64 544.58 429.637 545.755C429.277 546.162 429.105 546.664 429.105 547.165L429.12 547.165ZM435.309 296.599C435.309 297.069 435.466 297.539 435.764 297.931C436.704 299.138 437.644 300.36 438.568 301.597C439.273 302.553 440.636 302.741 441.577 302.036C442.532 301.315 442.72 299.968 442.015 299.028C441.075 297.759 440.119 296.521 439.148 295.283C438.412 294.343 437.064 294.186 436.124 294.923C435.576 295.346 435.294 295.988 435.294 296.615L435.309 296.599ZM437.957 536.244C437.957 536.902 438.255 537.545 438.819 537.968C439.775 538.689 441.122 538.485 441.843 537.545C442.783 536.291 443.723 535.007 444.648 533.722C445.337 532.75 445.118 531.403 444.146 530.714C443.175 530.024 441.827 530.243 441.138 531.215C440.245 532.468 439.32 533.722 438.396 534.96C438.098 535.351 437.957 535.806 437.957 536.244ZM443.551 307.927C443.551 308.335 443.676 308.758 443.911 309.134C444.773 310.403 445.619 311.703 446.449 313.004C447.092 314.007 448.424 314.304 449.426 313.662C450.429 313.02 450.727 311.688 450.084 310.685C449.238 309.353 448.377 308.037 447.499 306.721C446.841 305.734 445.494 305.467 444.507 306.141C443.895 306.564 443.551 307.238 443.551 307.927ZM445.995 524.713C445.995 525.418 446.34 526.107 446.982 526.53C447.985 527.173 449.317 526.89 449.959 525.888C450.821 524.556 451.651 523.224 452.482 521.877C453.108 520.858 452.779 519.542 451.761 518.915C450.742 518.289 449.426 518.618 448.8 519.636C447.985 520.952 447.17 522.268 446.34 523.553C446.105 523.914 445.995 524.321 445.995 524.713ZM450.93 319.851C450.93 320.211 451.024 320.572 451.213 320.916C451.98 322.248 452.717 323.596 453.453 324.959C454.017 326.008 455.318 326.4 456.367 325.836C457.417 325.272 457.809 323.972 457.245 322.922C456.493 321.527 455.741 320.149 454.957 318.785C454.362 317.751 453.046 317.391 452.012 317.971C451.307 318.362 450.93 319.099 450.93 319.851ZM453.187 512.648C453.187 513.416 453.594 514.152 454.299 514.544C455.349 515.124 456.649 514.732 457.229 513.698C457.981 512.319 458.733 510.925 459.454 509.514C460.002 508.449 459.579 507.164 458.53 506.616C457.48 506.067 456.179 506.49 455.631 507.54C454.926 508.919 454.189 510.282 453.453 511.63C453.265 511.959 453.187 512.319 453.187 512.664L453.187 512.648ZM457.401 332.307C457.401 332.62 457.464 332.934 457.605 333.232C458.263 334.626 458.906 336.02 459.532 337.431C460.018 338.512 461.287 339.013 462.368 338.527C463.449 338.042 463.951 336.773 463.465 335.691C462.823 334.25 462.165 332.808 461.491 331.398C460.974 330.317 459.689 329.863 458.624 330.38C457.84 330.756 457.386 331.524 457.386 332.323L457.401 332.307ZM459.485 500.082C459.485 500.897 459.955 501.68 460.739 502.041C461.82 502.542 463.105 502.056 463.59 500.975C464.248 499.534 464.891 498.092 465.518 496.635C465.988 495.538 465.471 494.269 464.389 493.815C463.293 493.345 462.024 493.862 461.569 494.943C460.958 496.369 460.331 497.779 459.689 499.189C459.564 499.487 459.501 499.785 459.501 500.082L459.485 500.082ZM462.932 345.186C462.932 345.437 462.979 345.703 463.073 345.954C463.622 347.396 464.17 348.837 464.687 350.294C465.095 351.422 466.317 352.002 467.445 351.595C468.557 351.187 469.153 349.949 468.745 348.837C468.213 347.349 467.664 345.876 467.1 344.403C466.677 343.29 465.424 342.742 464.311 343.165C463.449 343.494 462.932 344.309 462.932 345.171L462.932 345.186ZM464.86 487.093C464.86 487.971 465.392 488.785 466.27 489.114C467.382 489.522 468.62 488.958 469.043 487.845C469.591 486.373 470.124 484.884 470.641 483.396C471.033 482.267 470.422 481.045 469.309 480.654C468.181 480.262 466.959 480.873 466.567 481.985C466.066 483.443 465.549 484.9 465.016 486.341C464.922 486.592 464.875 486.843 464.875 487.093L464.86 487.093ZM467.492 358.442C467.492 358.645 467.523 358.865 467.586 359.068C468.009 360.463 468.416 361.857 468.808 363.267L468.871 363.518C469.184 364.662 470.375 365.336 471.519 365.022C472.662 364.709 473.336 363.518 473.023 362.374L472.944 362.108C472.553 360.682 472.13 359.241 471.707 357.831C471.362 356.687 470.155 356.044 469.027 356.389C468.103 356.671 467.492 357.533 467.492 358.457L467.492 358.442ZM469.247 473.775C469.247 474.715 469.858 475.577 470.798 475.844C471.942 476.173 473.132 475.514 473.461 474.371C473.9 472.867 474.323 471.331 474.715 469.811C475.013 468.667 474.323 467.477 473.179 467.179C472.036 466.881 470.845 467.571 470.547 468.714C470.155 470.203 469.748 471.691 469.309 473.164C469.247 473.368 469.231 473.572 469.231 473.76L469.247 473.775ZM471.127 372.01C471.127 372.167 471.142 372.339 471.189 372.512C471.55 374.016 471.879 375.536 472.208 377.04C472.459 378.199 473.602 378.951 474.762 378.701C475.921 378.45 476.658 377.306 476.423 376.147C476.094 374.611 475.749 373.076 475.389 371.54C475.122 370.381 473.963 369.66 472.803 369.942C471.816 370.177 471.142 371.055 471.142 372.042L471.127 372.01ZM472.662 460.175C472.662 461.178 473.352 462.071 474.37 462.275C475.53 462.526 476.673 461.773 476.924 460.614C477.253 459.079 477.551 457.527 477.848 455.976C478.068 454.801 477.3 453.689 476.125 453.469C474.95 453.25 473.837 454.018 473.618 455.193C473.336 456.713 473.038 458.217 472.725 459.737C472.694 459.893 472.678 460.034 472.678 460.191L472.662 460.175ZM473.916 385.767C473.916 385.892 473.916 386.002 473.947 386.127C474.198 387.663 474.448 389.183 474.668 390.702C474.84 391.878 475.937 392.692 477.112 392.52C478.287 392.348 479.102 391.251 478.93 390.076C478.71 388.525 478.46 386.973 478.193 385.407C477.989 384.232 476.877 383.448 475.718 383.636C474.668 383.808 473.916 384.733 473.916 385.751L473.916 385.767ZM475.06 446.34C475.06 447.406 475.843 448.33 476.924 448.471C478.099 448.628 479.196 447.797 479.353 446.622C479.556 445.071 479.76 443.504 479.932 441.922C480.058 440.747 479.212 439.681 478.036 439.54C476.861 439.415 475.796 440.261 475.655 441.436C475.483 442.972 475.295 444.507 475.091 446.027C475.091 446.121 475.075 446.215 475.075 446.325L475.06 446.34ZM475.796 399.665C475.796 399.665 475.796 399.806 475.796 399.884C475.953 401.42 476.094 402.971 476.203 404.491C476.297 405.681 477.331 406.559 478.522 406.465C479.713 406.371 480.575 405.321 480.496 404.146C480.371 402.579 480.23 401.012 480.073 399.43C479.948 398.239 478.898 397.377 477.707 397.502C476.595 397.612 475.765 398.552 475.765 399.649L475.796 399.665ZM476.454 432.38C476.454 433.508 477.331 434.464 478.475 434.526C479.666 434.605 480.684 433.696 480.763 432.505C480.857 430.938 480.935 429.356 480.998 427.789C481.029 426.614 480.12 425.596 478.93 425.549C477.739 425.502 476.736 426.426 476.689 427.617C476.626 429.168 476.548 430.703 476.454 432.239C476.454 432.286 476.454 432.333 476.454 432.38ZM476.736 413.672C476.736 413.672 476.736 413.719 476.736 413.735C476.783 415.286 476.814 416.821 476.83 418.373C476.83 419.563 477.817 420.519 479.008 420.503C480.199 420.503 481.092 419.469 481.139 418.326C481.139 416.759 481.092 415.176 481.045 413.594C481.013 412.403 480.011 411.479 478.82 411.51C477.66 411.541 476.736 412.497 476.736 413.656L476.736 413.672ZM14.2733 29.8951C14.2733 31.8536 14.6337 33.8278 15.3701 35.7393C15.6678 36.5227 16.0439 37.3062 16.4669 38.0269C17.8927 40.2988 20.2429 43.6048 22.1231 46.2683L23.2669 47.8979C31.7591 59.6647 39.7812 69.238 47.8033 77.1504C50.4669 79.7983 53.8042 82.8849 57.9876 86.5826C59.8678 88.2121 62.4217 90.4371 64.8503 92.2076C66.1978 93.1633 67.5139 94.1034 69.0494 94.6988C69.5508 94.8711 70.1775 95.0591 70.8669 95.0121C70.8825 95.0121 71.0079 95.0121 71.0236 94.9964C71.0549 94.9964 71.149 94.9808 71.1803 94.9651C71.2273 94.9651 71.2899 94.9338 71.3369 94.9338C71.3526 94.9338 71.4779 94.8868 71.4936 94.8868C71.5406 94.8711 71.666 94.8241 71.713 94.8085C71.7443 94.8085 71.854 94.7458 71.8697 94.7301C71.8697 94.7301 71.901 94.7144 71.9323 94.6988C71.948 94.6988 71.9637 94.6831 71.9793 94.6675C72.0577 94.6361 72.1203 94.5891 72.1674 94.5577C72.183 94.5577 72.277 94.4637 72.2927 94.4637C72.324 94.4324 72.3867 94.3697 72.4181 94.354C72.4337 94.3384 72.5434 94.2131 72.5747 94.1974C72.5904 94.1817 72.6688 94.0721 72.6844 94.0564C72.7001 94.025 72.7627 93.9467 72.7784 93.9154C72.7784 93.9154 72.8567 93.7743 72.8724 93.7587C73.2641 93.0223 73.3425 92.2859 73.3738 91.6591C73.4208 90.1393 73.1701 88.6822 72.8567 87.084C72.277 84.2951 71.4309 81.3181 70.6005 78.4978C68.9084 72.9356 67.5295 68.7522 66.2604 65.2896C62.406 54.6979 57.0475 43.4167 49.8872 30.8195L48.6337 28.6573C47.0825 25.978 45.1397 22.625 43.7609 20.5412C43.2439 19.8204 42.6798 19.1467 42.1157 18.5513C36.7572 13.0361 28.1867 12.0647 21.7157 16.2325C16.9683 19.2721 14.2577 24.5052 14.2577 29.9107L14.2733 29.8951ZM70.5692 92.2389C70.3812 92.2389 70.1775 92.1605 70.0208 92.0978C68.83 91.6435 67.6549 90.7974 66.5111 89.9983C64.3176 88.4002 62.171 86.5513 59.8051 84.4988C55.6687 80.8481 52.3628 77.7928 49.7305 75.1919C41.8181 67.3891 33.8899 57.9412 25.4918 46.2997L24.348 44.6702C22.5775 42.1789 20.1646 38.7476 18.8015 36.5854C18.4881 36.037 18.1747 35.3789 17.924 34.7365C15.6051 28.7826 17.83 21.967 23.2199 18.52C28.5941 15.0573 35.7231 15.872 40.1729 20.4472C40.6586 20.9329 41.113 21.4969 41.5203 22.061C42.8208 24.0508 44.7323 27.3569 46.2835 30.0048L47.537 32.1513C54.619 44.5919 59.9148 55.732 63.7065 66.1827C64.96 69.5826 66.3231 73.7347 67.9996 79.2342C68.8144 81.9762 69.6448 84.8905 70.1932 87.5697C70.4752 88.9956 70.7102 90.2647 70.6632 91.4868C70.6632 91.7218 70.6319 92.0038 70.5535 92.2076L70.5692 92.2389ZM46.4558 515.061C47.1922 514.904 47.9286 515.359 48.0853 516.095C48.5083 518.038 49.3074 519.824 50.4042 521.266C51.4697 522.707 52.9581 523.961 54.666 524.901C74.9563 535.524 88.3213 556.315 89.5277 579.16C89.6687 581.134 90.2015 583.014 91.0632 584.581C91.925 586.163 93.2097 587.62 94.7922 588.827C95.4033 589.281 95.513 590.143 95.0586 590.754C94.6042 591.365 93.7424 591.475 93.1314 591.02C91.2355 589.595 89.6844 587.824 88.6503 585.897C87.6005 583.985 86.9581 581.714 86.7858 579.332C85.6263 557.428 72.8254 537.498 53.3655 527.314C51.2816 526.17 49.4954 524.634 48.195 522.895C46.8789 521.156 45.9231 519.009 45.406 516.69C45.3904 516.596 45.3747 516.487 45.3747 516.393C45.3747 515.766 45.8135 515.202 46.4558 515.061ZM465.11 246.289C465.565 245.678 466.426 245.568 467.037 246.022C468.933 247.448 470.484 249.219 471.519 251.146C472.568 253.057 473.211 255.314 473.399 257.711C474.558 279.615 487.359 299.545 506.819 309.729C508.903 310.873 510.689 312.393 511.989 314.148C513.306 315.887 514.261 318.033 514.778 320.352C514.935 321.089 514.481 321.825 513.744 321.982C513.008 322.138 512.271 321.684 512.115 320.948C511.676 319.005 510.893 317.219 509.812 315.793C508.746 314.351 507.258 313.098 505.55 312.158C485.26 301.535 471.895 280.743 470.688 257.899C470.547 255.925 470.014 254.044 469.153 252.462C468.291 250.879 467.006 249.422 465.424 248.216C465.063 247.949 464.875 247.542 464.875 247.119C464.875 246.837 464.969 246.539 465.157 246.289L465.11 246.289ZM0.579376 31.6499C0.579375 34.8619 1.08072 38.0739 2.06784 41.1606C2.83554 43.5421 3.90103 45.8454 5.21713 47.9762C14.148 61.9366 24.6614 77.9338 36.6162 91.6748C37.854 93.1162 42.4604 98.3338 48.289 104.946C59.5858 117.731 76.6641 137.066 78.0586 139.008C81.537 143.348 84.7959 147.924 87.5692 152.295C94.3065 162.934 99.1323 173.776 101.906 184.525C103.394 190.338 104.162 195.492 104.24 200.255C104.287 202.825 104.115 205.363 103.739 207.839C103.378 210.189 102.783 212.759 101.937 215.689C100.495 220.671 99.0696 224.275 97.3461 227.393C96.265 229.351 95.0116 231.106 93.6485 232.626C92.8807 233.441 92.019 234.334 91.1572 235.243C88.4153 238.094 85.5794 241.055 83.1821 243.813C65.8844 263.289 51.6106 285.193 40.7526 308.883C12.2052 371.023 9.16548 443.567 32.4171 507.901L32.6365 508.496C33.4825 510.737 34.7517 514.137 35.2844 516.205C36.1618 519.464 36.6475 522.832 36.7572 526.201C36.8042 527.376 36.7572 528.598 36.7258 529.805C36.7102 530.322 36.6945 530.839 36.6788 531.34C36.6475 533.424 36.6946 535.477 36.8512 537.435C37.337 544 38.794 550.44 41.1913 556.582C44.3406 564.667 49.1978 572.234 55.2457 578.455C59.8208 583.186 65.0696 587.197 70.8512 590.362C72.7314 591.396 74.5802 592.29 76.3194 593.042L77.4319 593.512C78.6383 594.013 79.8761 594.53 81.0042 595.094C84.8742 597.006 88.4309 599.466 91.5802 602.427C121.381 632.855 158.374 655.871 198.5 668.907C222.911 676.867 248.294 681.207 273.942 681.802C282.544 681.99 291.35 681.771 299.419 681.175C301.315 681.034 303.273 681.081 305.232 681.348C306.955 681.567 308.695 681.959 310.434 682.523L311.812 683.008C311.812 683.008 311.938 683.055 311.985 683.071C313.52 683.588 335.142 691.955 352.55 698.692C378.12 708.595 384.012 710.867 385.594 711.384L385.594 711.415L389.135 712.559C391.861 713.279 394.525 713.546 397.032 713.373C401.074 713.107 404.866 711.728 408.517 710.381C414.862 707.968 421.537 704.756 429.073 700.479C437.848 695.418 448.8 688.304 458.467 682.037C461.068 680.345 463.575 678.715 465.894 677.227C474.621 671.445 481.28 666.479 486.873 661.574C490.038 658.754 493.36 655.699 496.259 652.299C497.34 650.998 498.703 649.275 499.753 647.254C500.599 645.655 501.257 643.885 501.727 642.036C502.009 640.908 502.213 639.749 502.369 638.589C502.463 637.774 502.557 637.007 502.604 636.27C502.714 635.44 502.792 634.202 502.918 632.337C503.09 629.846 503.309 626.29 503.56 622.075C504.077 613.661 504.719 602.599 505.33 592.008C506.271 575.854 507.258 559.167 507.414 557.631C507.414 557.553 507.446 557.475 507.446 557.396L507.477 556.879C507.618 554.984 507.978 553.072 508.511 551.176C508.934 549.688 509.514 548.168 510.25 546.648C510.783 545.583 511.519 544.22 512.256 542.856C513.008 541.462 513.776 540.052 514.34 538.908C533.768 501.101 543.812 458.64 543.404 416.069C543.154 384.639 537.2 353.491 525.699 323.517C524.602 320.227 523.882 316.733 523.584 313.176C523.474 311.829 523.412 310.325 523.443 308.695L523.474 307.614C523.521 306.22 523.568 304.778 523.537 303.352C523.443 298.589 522.848 293.81 521.719 289.173C520.09 282.404 517.426 275.964 513.776 270.042C509.78 263.524 504.719 257.82 498.766 253.057C495.021 250.065 490.947 247.479 486.654 245.364C484.883 244.487 483.019 243.719 481.233 242.967C479.932 242.403 478.585 241.745 477.222 240.977C474.464 239.426 471.848 237.577 469.466 235.446C468.667 234.773 467.178 233.284 465.988 232.078C465.361 231.435 464.781 230.855 464.358 230.448C461.475 227.69 457.652 224.04 454.722 221.47C443.895 211.897 432.332 203.217 420.362 195.696C376.021 167.697 322.733 153.392 270.323 155.413C252.978 156.055 235.618 158.437 218.743 162.479C209.201 164.751 199.424 167.697 189.726 171.222C188.159 171.802 186.467 172.225 184.712 172.507C178.868 173.416 172.679 172.632 166.882 171.645C162.855 170.94 159.032 169.765 155.569 168.183C151.01 166.114 146.372 163.153 141.389 159.126C131.754 151.292 123.105 141.139 115.694 128.934C113.359 125.079 110.931 120.614 108.862 116.352C106.857 112.184 102.344 102.016 97.5812 91.2518C90.5148 75.3016 82.5084 57.2204 79.4061 51.3449C73.7655 40.4555 66.4641 28.2029 57.0945 13.8665C55.7471 11.955 54.2429 10.2158 52.5508 8.68034C48.3517 4.82597 42.9462 2.13102 37.3526 1.09696C30.2863 -0.250511 22.9222 0.940224 16.6236 4.41856C9.96457 8.06925 4.7471 14.2739 2.2872 21.4499C1.1434 24.7089 0.579376 28.1559 0.579376 31.6029L0.579376 31.6499ZM108.173 200.976C108.173 200.71 108.173 200.443 108.173 200.177C108.095 195.101 107.295 189.648 105.713 183.538C102.83 172.397 97.8475 161.179 90.8909 150.196C88.0392 145.699 84.6862 141.014 81.1766 136.643C79.8291 134.778 66.8088 120.003 51.219 102.361C45.3904 95.7642 40.7839 90.5467 39.5775 89.1366C27.795 75.5992 17.3756 59.7273 8.53879 45.908C7.39499 44.0748 6.47061 42.0536 5.79684 39.9697C3.99502 34.4075 4.07333 28.3126 5.98489 22.7974C8.13144 16.5301 12.7065 11.1089 18.5194 7.91264C23.9406 4.90434 30.5369 3.83884 36.6318 4.99827C41.536 5.90702 46.2521 8.27299 49.9185 11.626C51.3913 12.9734 52.7231 14.4776 53.8513 16.1071C63.1112 30.2711 70.3342 42.4297 75.9277 53.1937C78.9673 58.9596 86.9582 76.978 93.9932 92.8656C98.9913 104.131 103.3 113.861 105.337 118.091C107.452 122.463 109.943 127.054 112.341 131.002C119.987 143.584 128.918 154.081 138.914 162.197C144.163 166.443 149.083 169.577 153.94 171.771C157.716 173.494 161.837 174.763 166.208 175.531C172.35 176.565 178.915 177.396 185.323 176.408C187.344 176.095 189.272 175.594 191.073 174.936C200.631 171.457 210.251 168.559 219.652 166.318C236.276 162.338 253.37 159.988 270.464 159.361C322.091 157.372 374.579 171.457 418.262 199.049C430.06 206.46 441.451 214.999 452.137 224.447C455.02 226.97 458.812 230.589 461.569 233.237C462.039 233.691 462.603 234.255 463.214 234.882C464.53 236.198 466.019 237.702 466.912 238.455C469.466 240.726 472.302 242.763 475.326 244.44C476.814 245.27 478.287 245.991 479.697 246.602C481.483 247.338 483.285 248.091 484.946 248.905C488.989 250.895 492.827 253.324 496.353 256.144C501.962 260.625 506.709 265.999 510.47 272.126C513.901 277.688 516.408 283.751 517.928 290.113C518.977 294.484 519.542 298.965 519.636 303.478C519.667 304.794 519.636 306.173 519.573 307.52L519.542 308.632C519.51 310.419 519.557 312.064 519.698 313.537C520.012 317.391 520.795 321.214 522.033 324.865C533.377 354.478 539.252 385.156 539.503 416.116C539.957 458.029 530.024 499.894 510.814 537.169C510.25 538.297 509.514 539.644 508.777 541.008C508.01 542.418 507.258 543.812 506.694 544.94C505.863 546.679 505.189 548.403 504.704 550.095C504.093 552.242 503.685 554.42 503.529 556.582L503.497 557.114L503.576 557.114C503.356 558.446 503.184 561.267 502.808 567.753C502.416 574.161 501.915 582.795 501.398 591.773C500.301 610.449 498.954 633.638 498.703 635.69C498.671 635.8 498.656 635.91 498.656 636.02C498.609 636.678 498.53 637.383 498.452 638.041C498.311 639.106 498.123 640.109 497.888 641.08C497.496 642.632 496.948 644.089 496.243 645.42C495.554 646.752 494.629 648.084 493.235 649.761C490.508 652.957 487.312 655.902 484.257 658.629C478.82 663.408 472.286 668.265 463.731 673.937C461.428 675.409 458.921 677.039 456.32 678.731C446.7 684.983 435.795 692.049 427.115 697.063C419.782 701.231 413.28 704.364 407.248 706.652C403.769 707.921 400.259 709.206 396.75 709.441C394.666 709.597 392.441 709.362 390.122 708.751L387.255 707.843C387.067 707.78 386.926 707.717 386.801 707.686C385.876 707.373 369.644 701.09 353.944 695.026C322.608 682.899 315.181 680.031 313.144 679.389L313.144 679.326L311.64 678.778C309.65 678.136 307.676 677.681 305.718 677.431C303.493 677.149 301.283 677.086 299.121 677.243C291.177 677.838 282.497 678.057 274.021 677.869C248.748 677.274 223.757 672.996 199.706 665.162C160.176 652.314 123.731 629.643 94.3065 599.607C90.8125 596.332 86.9424 593.637 82.7434 591.569C81.5056 590.942 80.1895 590.394 78.9204 589.877L77.8392 589.422C76.2098 588.717 74.4862 587.871 72.7157 586.9C67.2945 583.923 62.359 580.147 58.0503 575.697C52.3784 569.837 47.8033 562.724 44.842 555.125C42.5858 549.359 41.2069 543.295 40.7526 537.122C40.6116 535.273 40.5489 533.346 40.5959 531.387C40.5959 530.902 40.6272 530.416 40.6429 529.914C40.6899 528.645 40.7369 527.329 40.6743 526.029C40.5646 522.378 40.0318 518.712 39.0761 515.186C38.4963 512.93 37.1803 509.405 36.3028 507.086L36.0834 506.522C13.1765 443.16 16.1692 371.697 44.2936 310.481C54.995 287.136 69.0651 265.561 86.1121 246.351C88.4623 243.641 91.2669 240.726 93.9775 237.906C94.8549 236.997 95.7167 236.104 96.5314 235.243C98.1296 233.456 99.5397 231.467 100.777 229.257C102.658 225.873 104.177 222.019 105.713 216.754C106.622 213.667 107.248 210.925 107.64 208.403C108.016 205.974 108.204 203.483 108.204 200.961L108.173 200.976ZM359.099 672.589C359.099 675.503 360.478 678.324 362.797 680.11C363.361 680.549 363.988 680.94 364.646 681.238L364.849 681.332C365.006 681.395 365.163 681.473 365.304 681.52L384.419 688.884C386.534 689.699 388.446 690.216 390.263 690.482C391.893 690.717 393.538 690.764 395.152 690.576C396.656 690.42 398.27 690.059 400.197 689.479C403.722 688.383 407.404 686.894 411.807 684.81C422.07 679.89 432.63 672.996 442.861 666.322C445.917 664.332 448.925 662.373 451.824 660.525C458.498 656.09 467.069 650.09 474.37 642.741C476.626 640.422 478.757 638.119 480.214 635.252C481.342 633.058 482.079 630.457 482.392 627.512C482.549 626.337 482.737 623.219 483.301 613.442C483.52 609.681 483.74 605.796 483.787 605.373C483.787 605.326 483.787 605.247 483.787 605.216C483.818 604.652 483.787 604.088 483.708 603.539C483.113 598.839 479.071 595.235 474.307 595.188C472.49 595.157 470.625 595.69 469.074 596.661C468.604 596.959 468.15 597.303 467.742 597.679C467.586 597.836 467.413 597.993 467.257 598.149L464.515 600.97C459.235 606.297 453.171 611.906 447.421 616.763C423.464 637.007 395.136 653.161 365.523 663.47C363.627 664.128 361.951 665.397 360.807 667.058C359.695 668.641 359.083 670.584 359.083 672.526C359.083 672.542 359.083 672.558 359.083 672.589L359.099 672.589ZM478.522 626.901C478.522 626.901 478.491 627.042 478.491 627.104C478.224 629.564 477.629 631.695 476.72 633.466C475.514 635.863 473.587 637.915 471.565 639.999C464.53 647.081 456.179 652.941 449.677 657.25C446.794 659.083 443.77 661.042 440.699 663.047C430.577 669.643 420.127 676.459 410.099 681.269C405.931 683.243 402.296 684.701 399.006 685.735C397.33 686.252 395.966 686.549 394.713 686.69C393.428 686.832 392.112 686.8 390.812 686.612C389.276 686.393 387.647 685.938 385.798 685.233L366.197 677.666C365.883 677.525 365.523 677.29 365.178 677.023C363.831 675.989 363.001 674.281 363.001 672.589C363.001 672.589 363.001 672.573 363.001 672.558C363.001 671.398 363.361 670.255 364.019 669.314C364.693 668.343 365.68 667.591 366.808 667.199C396.875 656.717 425.626 640.328 449.943 619.787C455.772 614.867 461.93 609.164 467.304 603.743L470.077 600.891C470.187 600.782 470.281 600.688 470.375 600.594C470.61 600.374 470.876 600.171 471.158 599.998C472.083 599.419 473.179 599.105 474.26 599.121C477.081 599.152 479.462 601.267 479.823 604.056C479.87 604.37 479.885 604.683 479.87 604.996C479.807 605.576 479.697 607.55 479.368 613.238C479.071 618.283 478.632 625.882 478.507 626.916L478.522 626.901ZM22.1388 30.9762C22.1388 31.3679 22.1701 31.7596 22.2171 32.1513C22.3268 32.9504 22.5305 33.7181 22.8438 34.4702C22.9692 34.8305 23.3139 35.4573 24.8024 38.0582C25.1314 38.638 25.3978 39.0923 25.4761 39.249C29.7535 46.6288 33.4982 52.3006 37.3213 57.1578C41.0503 61.9366 45.3747 66.919 50.1378 71.9485L51.0936 72.9356C52.7701 74.6748 54.5093 76.4766 56.3738 77.9651C57.2512 78.6388 58.1913 79.3126 59.3664 79.6416C60.4005 79.9237 61.4033 79.7983 62.218 79.2656C63.0641 78.7329 63.6125 77.8241 63.7535 76.7273C63.9102 75.5522 63.6908 74.4711 63.4715 73.4527C62.8761 71.0868 61.9673 68.7522 61.0743 66.496L60.5886 65.2582C57.9876 58.8029 55.2614 52.8177 52.4724 47.4278C49.6365 41.9439 46.0485 36.178 41.16 29.284C40.9876 29.049 40.6743 28.626 40.2982 28.0776C38.5747 25.649 38.089 25.0223 37.7757 24.7089C37.2116 24.1292 36.5849 23.6121 35.8798 23.2048C34.407 22.3116 32.6365 21.8573 30.9129 21.92C29.2208 21.967 27.5757 22.4997 26.1812 23.4398C24.771 24.3799 23.6586 25.696 22.9535 27.2315C22.4208 28.4066 22.1388 29.6757 22.1388 30.9762ZM26.5102 33.1227C26.5102 33.1227 26.4789 33.06 26.4632 33.0287C26.2752 32.6057 26.1499 32.12 26.0872 31.6499C25.9619 30.7098 26.1185 29.7228 26.5102 28.861C26.9019 27.9992 27.56 27.2315 28.3434 26.6988C29.1268 26.1661 30.0825 25.8684 31.0383 25.837C32.0254 25.8057 33.0125 26.0564 33.8586 26.5734C34.266 26.8241 34.642 27.1218 34.971 27.4665C35.0024 27.4978 35.0181 27.5135 35.0494 27.5449C35.3628 27.9209 36.5379 29.5504 37.1019 30.3651C37.572 31.0232 37.948 31.5559 38.042 31.6656C42.7268 38.2933 46.2365 43.9025 48.9784 49.2297C51.7204 54.5099 54.3996 60.3854 56.9379 66.6997L57.4236 67.9375C58.2697 70.084 59.1471 72.2932 59.6641 74.3771C59.7581 74.8158 59.8521 75.2388 59.8835 75.6462C59.5388 75.4582 59.1784 75.1919 58.7867 74.8942C57.1572 73.578 55.4964 71.8702 53.9139 70.225L52.9581 69.238C48.289 64.3181 44.0586 59.4453 40.3922 54.7605C36.6789 50.0444 33.0439 44.5135 28.9074 37.3845C28.8918 37.3375 28.5785 36.7891 28.1867 36.1154C27.701 35.285 26.7139 33.5614 26.5102 33.1384L26.5102 33.1227ZM25.9618 418.388L25.9618 418.686C25.9618 440.606 28.8291 462.478 34.454 483.693C36.1618 490.164 38.465 497.591 40.972 504.61L41.4263 505.848C42.2724 508.12 43.3222 510.94 43.9019 513.008C45.1397 517.364 45.829 521.861 45.9231 526.358C45.9544 527.549 45.9231 528.739 45.8761 530.008C45.8447 531.278 45.7977 532.578 45.8291 533.863C45.9074 537.702 46.4088 541.603 47.2862 545.41C49.3388 554.263 53.5378 562.583 59.4604 569.492C64.2706 575.117 70.3185 579.865 76.9461 583.218C78.4033 583.97 79.9701 584.628 81.4899 585.27C82.0226 585.49 82.5397 585.709 83.0567 585.928C84.1065 586.414 85.7203 587.15 87.0678 587.918C91.5959 590.409 95.701 593.496 99.289 597.147C137.864 636.208 186.968 661.292 241.259 669.69C295.549 678.089 349.933 669.017 398.52 643.446C477.488 601.91 529.381 520.733 533.909 431.596C535.037 409.708 533.314 387.71 528.801 366.229C526.154 353.491 522.205 340.173 517.082 326.651C515.546 322.138 514.622 317.375 514.355 312.581C514.23 310.826 514.277 309.071 514.324 307.207C514.371 305.608 514.418 303.948 514.324 302.302C514.042 295.236 512.381 288.076 509.514 281.589C506.255 274.209 501.335 267.456 495.287 262.098C491.668 258.87 487.61 256.128 483.254 253.919C481.797 253.167 480.23 252.509 478.71 251.867C478.178 251.647 477.66 251.428 477.143 251.208C475.169 250.331 473.226 249.328 471.55 248.326C467.915 246.163 464.546 243.578 461.554 240.632C438.944 217.6 411.4 198.595 381.912 185.715C343.102 168.715 300.171 161.696 257.773 165.441C215.375 169.185 174.34 183.6 139.102 207.134C68.2346 254.311 25.9618 333.279 25.9618 418.388ZM49.8558 527.298C49.8558 526.953 49.8558 526.608 49.8558 526.248C49.7462 521.422 49.0254 516.596 47.6936 511.912C47.0669 509.702 45.9858 506.788 45.124 504.454L44.6696 503.247C42.2097 496.353 39.9378 489.036 38.2614 482.675C32.7305 461.773 29.9102 440.245 29.9102 418.655L29.9102 418.373C29.9102 334.563 71.5406 256.833 141.311 210.377C176.016 187.204 216.409 173.008 258.165 169.326C299.905 165.644 342.177 172.554 380.392 189.288C409.425 201.963 436.563 220.671 458.843 243.39C462.086 246.571 465.706 249.344 469.607 251.663C471.409 252.744 473.493 253.825 475.624 254.765C476.172 255 476.705 255.235 477.253 255.455C478.695 256.066 480.199 256.692 481.515 257.382C485.589 259.45 489.365 262.004 492.733 265.012C498.358 270.01 502.949 276.278 505.989 283.156C508.668 289.188 510.203 295.863 510.47 302.443C510.532 303.963 510.501 305.483 510.47 307.081C510.423 308.946 510.36 310.873 510.501 312.8C510.783 317.924 511.786 323.032 513.462 327.951C518.539 341.332 522.409 354.462 525.025 367.012C529.475 388.164 531.167 409.818 530.055 431.377C525.589 519.135 474.511 599.058 396.734 639.952C348.899 665.131 295.361 674.062 241.901 665.789C188.441 657.516 140.105 632.808 102.125 594.358C98.2706 590.441 93.8521 587.119 89.0263 584.455C87.5692 583.625 85.8613 582.842 84.7019 582.309C84.1378 582.074 83.6051 581.839 83.0724 581.62C81.631 581.008 80.1268 580.382 78.8106 579.692C72.6217 576.559 66.9968 572.14 62.5157 566.891C57.0005 560.467 53.0835 552.712 51.1876 544.486C50.3572 540.929 49.9028 537.31 49.8245 533.722C49.7932 532.531 49.8245 531.34 49.8715 530.071C49.9028 529.147 49.9342 528.207 49.9342 527.251L49.8558 527.298ZM-0.000397419 31.6499C-0.000397563 34.9245 0.501006 38.1992 1.51944 41.3329C2.30282 43.7615 3.384 46.1117 4.73141 48.2738C13.678 62.2499 24.207 78.2942 36.1932 92.0665C36.8042 92.7716 40.6273 97.1117 45.6881 102.846C55.9508 114.472 75.0346 136.125 76.0218 137.41C79.1554 141.218 82.1167 145.15 84.6863 148.926C91.3923 158.813 96.4531 168.966 99.7434 179.088C102.282 187.031 103.566 193.957 103.676 200.255C103.739 203.937 103.331 207.682 102.47 211.364C101.671 214.764 100.652 218.117 99.4614 221.345C97.8789 225.544 96.0301 228.881 93.8052 231.529C93.4135 231.999 92.9904 232.454 92.5987 232.877C91.0475 234.412 88.5406 237.076 86.7075 239.034L85.8614 239.927C80.5969 245.646 75.5673 251.631 70.8982 257.711C56.8281 276.011 45.2024 296.114 36.3498 317.454C11.03 378.325 9.4319 446.027 31.8688 508.073L32.1507 508.825C32.9655 511.019 34.2189 514.309 34.7203 516.314C35.6291 519.73 36.1148 523.224 36.1775 526.734C36.2088 527.705 36.1775 528.677 36.1304 529.632C36.1148 530.196 36.0834 530.745 36.0834 531.293C36.0521 533.581 36.1148 535.853 36.3028 538.062C36.8512 544.69 38.3867 551.192 40.8779 557.365C44.1369 565.481 49.1194 573.065 55.277 579.301C59.9461 584.017 65.2733 588.012 71.1019 591.146C72.8567 592.086 74.5332 592.885 76.0844 593.559L76.4448 593.715C78.4033 594.53 80.4088 595.361 82.2106 596.363C85.7987 598.306 89.0733 600.735 91.972 603.602C122.368 634.562 160.348 657.72 201.79 670.568C226.358 678.214 251.866 682.209 277.577 682.444C285.051 682.507 292.917 682.241 300.296 681.692C301.863 681.614 303.555 681.692 305.232 681.912C306.861 682.131 308.507 682.507 310.12 683.024L311.577 683.541C311.577 683.541 311.718 683.588 311.797 683.62C313.458 684.199 335.017 692.535 352.362 699.241C377.29 708.892 383.542 711.305 385.375 711.916L385.375 711.963C386.409 712.339 387.537 712.731 388.649 713.029C391.344 713.765 393.977 714.094 396.452 713.984C398.708 713.89 401.121 713.436 404.051 712.543C411.682 710.13 419.484 706.558 429.34 700.996C438.13 695.919 449.097 688.806 458.765 682.523C461.365 680.831 463.872 679.201 466.191 677.713C476.579 670.803 487.375 663.047 496.259 653.145C497.794 651.406 498.985 649.745 499.925 648.053C500.896 646.329 501.648 644.449 502.165 642.49C502.636 640.736 502.933 638.84 503.106 636.709L503.168 635.91C503.168 635.769 503.701 627.292 504.39 615.933C505.816 592.728 507.978 557.679 508.025 557.005C508.025 556.723 508.072 556.503 508.088 556.3L508.135 555.798C508.198 555.093 508.354 554.357 508.48 553.636C508.871 551.693 509.451 549.844 510.219 548.043C510.564 547.212 510.987 546.382 511.41 545.598C513.603 541.572 516.815 535.461 519.62 529.35C534.912 496.322 543.326 459.627 543.953 423.245C544.329 402.093 542.151 380.91 537.482 360.322C534.818 348.461 531.042 336.02 526.248 323.329C525.166 320.102 524.446 316.639 524.164 313.145C524.054 311.813 524.007 310.325 524.023 308.726L524.054 307.661C524.101 306.251 524.148 304.809 524.117 303.368C524.038 298.777 523.474 294.171 522.44 289.69C520.92 283.078 518.413 276.748 514.966 270.903C510.94 264.056 505.785 258.04 499.643 253.026C495.726 249.83 491.433 247.088 486.92 244.863C485.087 243.954 483.144 243.155 481.421 242.434C480.183 241.902 478.851 241.243 477.504 240.491C474.778 238.972 472.208 237.138 469.858 235.039C469.074 234.365 467.57 232.861 466.364 231.655C465.737 231.028 465.173 230.464 464.766 230.056L464.625 229.915C461.851 227.252 458.044 223.601 455.098 221.047C444.256 211.458 432.661 202.762 420.66 195.226C376.224 167.164 322.812 152.828 270.292 154.849C252.9 155.491 235.508 157.873 218.602 161.931C209.029 164.203 199.252 167.164 189.522 170.705C187.987 171.269 186.326 171.692 184.618 171.959C178.852 172.852 172.726 172.068 166.976 171.097C162.996 170.392 159.236 169.248 155.804 167.681C151.292 165.644 146.701 162.699 141.75 158.703C132.161 150.916 123.575 140.81 116.195 128.667C113.86 124.829 111.448 120.379 109.395 116.133C107.389 111.981 102.893 101.812 98.1139 91.0325C91.0475 75.0822 83.0254 57.0011 79.9231 51.1098C74.2669 40.2048 66.9499 27.9209 57.5959 13.5845C56.2171 11.6103 54.6816 9.85545 52.9581 8.28861C48.618 4.30894 43.2595 1.62962 37.4623 0.548562C30.2549 -0.814598 22.7499 0.376198 16.3416 3.93284C9.57291 7.64622 4.23001 13.9762 1.72311 21.2776C0.563629 24.5992 -0.0160223 28.1089 -0.0160224 31.6186L-0.000397419 31.6499ZM80.0328 134.277C78.8577 132.819 71.2429 124.139 49.5111 99.4776C44.4503 93.743 40.6273 89.4029 40.0475 88.7292C28.2964 75.2232 17.877 59.367 9.05582 45.579C7.94339 43.7928 7.03464 41.8186 6.37656 39.7817C4.62173 34.3449 4.68442 28.3753 6.56461 22.9697C8.66415 16.8278 13.1295 11.532 18.8171 8.41398C24.1286 5.46836 30.5683 4.43424 36.5379 5.56236C41.3323 6.45542 45.9388 8.75865 49.5425 12.049C50.984 13.3651 52.2844 14.838 53.3969 16.4361C62.6254 30.5532 69.8485 42.696 75.442 53.4601C78.4817 59.2103 86.4568 77.2131 93.4918 93.0849C98.4899 104.366 102.799 114.112 104.851 118.326C106.982 122.729 109.473 127.32 111.886 131.3C119.564 143.944 128.557 154.489 138.585 162.652C143.881 166.929 148.832 170.094 153.736 172.303C157.543 174.043 161.727 175.327 166.145 176.111C172.35 177.161 178.962 177.991 185.448 176.988C187.501 176.659 189.475 176.158 191.308 175.484C200.85 172.006 210.439 169.123 219.825 166.882C236.417 162.902 253.464 160.568 270.527 159.941C322.044 157.951 374.407 172.006 417.996 199.535C429.763 206.93 441.138 215.454 451.792 224.87C454.66 227.361 458.404 230.965 461.162 233.597L461.287 233.723C461.663 234.099 462.212 234.632 462.807 235.243C464.139 236.59 465.659 238.11 466.567 238.878C469.153 241.181 472.02 243.233 475.075 244.925C476.579 245.772 478.068 246.508 479.509 247.119C481.264 247.84 483.05 248.576 484.727 249.422C488.91 251.475 492.874 254.013 496.494 256.959C502.166 261.581 506.929 267.127 510.642 273.457C513.823 278.863 516.142 284.707 517.536 290.818C518.492 294.97 519.009 299.216 519.087 303.478C519.119 304.778 519.087 306.157 519.024 307.489L518.993 308.617C518.962 310.434 519.009 312.095 519.15 313.584C519.463 317.485 520.262 321.355 521.516 325.053C526.263 337.619 529.977 349.824 532.577 361.466C537.153 381.662 539.283 402.454 538.923 423.183C538.312 458.875 530.055 494.849 515.045 527.251C512.287 533.236 509.138 539.237 506.976 543.217C506.49 544.126 505.989 545.097 505.565 546.1C504.672 548.184 503.983 550.393 503.544 552.602C503.372 553.526 503.2 554.451 503.106 555.344L503.059 555.751C503.027 556.096 502.98 556.456 502.965 556.754C502.965 556.879 501.727 576.7 499.33 615.651C498.64 626.948 498.107 635.408 498.107 635.612L498.06 636.349C497.919 638.15 497.653 639.749 497.277 641.221C496.87 642.773 496.29 644.245 495.522 645.593C494.754 646.972 493.752 648.335 492.483 649.792C483.99 659.255 473.508 666.776 463.434 673.482C461.146 674.955 458.639 676.584 456.023 678.277C446.402 684.513 435.513 691.595 426.848 696.593C417.338 701.967 409.833 705.398 402.578 707.702C400.118 708.454 398.113 708.845 396.28 708.924C394.321 709.018 392.222 708.751 390.012 708.14C389.072 707.89 388.07 707.545 387.13 707.2C387.083 707.184 387.036 707.169 386.989 707.153C385.688 706.699 369.706 700.51 354.226 694.525C323.611 682.679 315.73 679.624 313.379 678.888L313.411 678.825L311.734 678.23C309.807 677.603 307.848 677.164 305.921 676.914C303.931 676.647 301.942 676.569 299.999 676.663C292.682 677.196 284.973 677.462 277.64 677.399C252.43 677.164 227.424 673.247 203.31 665.742C162.667 653.161 125.424 630.442 95.5913 600.045C92.3166 596.818 88.6659 594.107 84.6705 591.945C82.6494 590.817 80.4872 589.924 78.419 589.062L78.09 588.921C76.6955 588.325 75.16 587.573 73.5305 586.712C68.1563 583.813 63.2365 580.147 58.9277 575.775C53.2401 570.025 48.6493 563.021 45.641 555.532C43.3535 549.829 41.9277 543.828 41.4107 537.717C41.2383 535.68 41.16 533.581 41.2069 531.466C41.2069 530.949 41.2383 530.431 41.254 529.899C41.301 528.849 41.3323 527.768 41.301 526.687C41.2383 522.785 40.6899 518.884 39.6715 515.108C39.1074 512.867 37.854 509.546 36.9452 507.117L36.6788 506.396C14.6807 445.573 16.2475 379.186 41.0816 319.49C49.7618 298.573 61.1526 278.863 74.9563 260.907C79.5471 254.937 84.4825 249.078 89.6217 243.484L90.4521 242.607C92.254 240.679 94.7139 238.047 96.265 236.527C96.8134 235.963 97.3305 235.399 97.7692 234.851C100.339 231.78 102.47 227.957 104.271 223.194C105.541 219.778 106.622 216.206 107.468 212.602C108.424 208.497 108.862 204.345 108.8 200.224C108.674 193.408 107.311 186.013 104.616 177.584C101.169 166.992 95.9047 156.4 88.9323 146.122C86.2844 142.22 83.2291 138.147 80.0641 134.339L80.0328 134.277Z" fill="#DEE4F7"/>
</g>
<defs>
<clipPath id="clip0_186_27990">
<rect width="714" height="544" fill="white" transform="matrix(4.37114e-08 -1 -1 -4.37114e-08 544 714)"/>
</clipPath>
</defs>
</svg>
