<svg width="186" height="154" viewBox="0 0 186 154" fill="none" xmlns="http://www.w3.org/2000/svg">
<path d="M78.3284 4.70287L88.5752 11.1345C90.0774 12.0774 91.8652 12.4574 93.6211 12.207L105.598 10.4992C106.548 10.3637 107.491 10.7838 108.026 11.5803L114.771 21.6236C115.76 23.096 117.239 24.1704 118.945 24.6558L130.581 27.9671C131.503 28.2297 132.195 28.9972 132.359 29.9424L134.436 41.8609C134.741 43.6082 135.654 45.191 137.015 46.3284L146.299 54.0862C147.035 54.7014 147.354 55.6837 147.12 56.6142L144.17 68.3469C143.737 70.067 143.928 71.8847 144.709 73.4773L150.034 84.3402C150.457 85.2017 150.349 86.2289 149.756 86.9838L142.289 96.5021C141.194 97.8976 140.629 99.6359 140.695 101.408L141.141 113.498C141.177 114.457 140.66 115.351 139.812 115.8L129.119 121.458C127.551 122.288 126.328 123.646 125.667 125.292L121.158 136.518C120.8 137.408 119.965 138.015 119.007 138.08L106.937 138.9C105.167 139.02 103.498 139.764 102.224 140.998L93.5387 149.42C92.8499 150.088 91.8396 150.302 90.9387 149.972L79.5786 145.812C77.9132 145.202 76.0855 145.202 74.42 145.812L63.0599 149.972C62.159 150.302 61.1487 150.088 60.4599 149.42L51.7743 140.998C50.5009 139.764 48.8312 139.02 47.0616 138.9L34.9914 138.08C34.0341 138.015 33.1985 137.408 32.8409 136.518L28.3315 125.292C27.6704 123.646 26.4474 122.288 24.8797 121.458L14.1864 115.8C13.3383 115.351 12.8219 114.457 12.8573 113.498L13.3039 101.408C13.3693 99.6359 12.8045 97.8976 11.7098 96.5021L4.24231 86.9838C3.6501 86.2289 3.54214 85.2017 3.96446 84.3402L9.28974 73.4773C10.0705 71.8847 10.2615 70.067 9.82896 68.3469L6.87859 56.6142C6.64461 55.6837 6.96377 54.7014 7.69999 54.0862L16.9832 46.3284C18.3442 45.191 19.2581 43.6082 19.5625 41.8608L21.6394 29.9424C21.8041 28.9972 22.4952 28.2297 23.418 27.9671L35.054 24.6558C36.76 24.1704 38.2386 23.096 39.2275 21.6236L45.9724 11.5803C46.5073 10.7838 47.4509 10.3637 48.4007 10.4992L60.3776 12.207C62.1335 12.4574 63.9212 12.0774 65.4235 11.1345L75.6703 4.70286C76.4829 4.1928 77.5157 4.1928 78.3284 4.70287Z" fill="#FAFBFB" stroke="#FF4E4E" stroke-width="5"/>
<path fill-rule="evenodd" clip-rule="evenodd" d="M103.783 115.312C105.439 111.552 104.253 107.342 103.117 103.308C101.975 99.2524 100.883 95.3758 102.779 92.3147C103.793 90.6786 105.214 88.9731 106.77 87.1067C111.02 82.0072 116.272 75.7064 116.936 66.3384C117.271 61.5889 116.586 58.5198 113.099 53.3126C101.34 35.7369 64.3076 21.733 49.1602 32.1214C46.6813 33.8202 44.9183 35.1501 41.9957 37.8185C36.071 43.2254 34.7293 48.7887 36.1193 55.2977C36.1897 55.6265 36.2679 56.0039 36.3558 56.4277C38.0065 64.389 43.0488 88.7083 62.8337 114.27C75.0308 128.745 78.7559 127.891 81.8661 127.178L81.8662 127.178L81.8663 127.178L81.8665 127.178C82.1383 127.116 82.4054 127.054 82.6731 127.005C86.0037 126.384 100.46 122.855 103.784 115.317L103.783 115.312ZM96.3358 112.751C90.3099 117.833 84.3994 115.173 75.119 104.154C65.8387 93.1352 37.5203 52.5094 52.9804 39.4733C68.4457 26.4362 97.5401 45.1389 106.605 55.8932C115.668 66.6506 105.116 77.5912 98.9034 82.8269C95.7737 85.4647 96.675 91.7485 97.5695 97.9849C98.4505 104.127 99.3249 110.224 96.3348 112.746L96.3358 112.751ZM61.2332 76.9236L79.6846 87.4201L98.0344 76.71L79.7606 102.104L61.2332 76.9236ZM60.212 71.6118L79.7969 42.0031L98.9851 71.3867L79.6569 82.6781L60.212 71.6118ZM92.638 108.084C96.9264 105.38 91.9234 91.9105 91.9234 91.9105L91.9224 91.9052L82.8473 104.646C82.8473 104.646 88.3496 110.788 92.638 108.084ZM75.873 40.5578C75.873 40.5578 58.0597 37.4802 54.2102 44.283C49.5607 52.5021 57.0764 67.974 57.0764 67.974L75.873 40.5578ZM105.799 62.4571C105.565 57.0306 87.8398 45.7967 87.8398 45.7967L102.468 69.2712C102.468 69.2712 106.033 67.8836 105.799 62.4571Z" fill="#FF4E4E"/>
<rect x="90" y="103" width="96" height="50" rx="10" fill="black"/>
<path d="M117.345 116.064V140H112.417V122.272L109.377 124.416L107.201 120.512L113.729 116.064H117.345ZM123.608 134.688C125.176 134.688 126.456 135.936 126.456 137.536C126.456 139.104 125.176 140.352 123.608 140.352C122.04 140.352 120.792 139.104 120.792 137.536C120.792 135.936 122.04 134.688 123.608 134.688ZM137.082 124.8C141.274 124.8 144.442 127.424 144.442 132.384C144.442 137.216 141.37 140.352 136.442 140.352C131.61 140.352 128.794 137.6 128.666 133.376L133.594 133.088C133.69 134.848 134.65 135.968 136.474 135.968C138.458 135.968 139.482 134.56 139.482 132.512C139.482 130.432 138.394 129.184 136.602 129.184C135.578 129.184 134.746 129.504 134.042 130.016H129.466V116.064H143.514V120.416H134.394V125.344C135.13 124.992 136.026 124.8 137.082 124.8ZM167.817 116.064L160.841 127.84L168.233 140H162.505L157.193 131.104L151.849 140H146.121L153.513 127.84L146.537 116.064H152.233L157.193 124.544L162.121 116.064H167.817Z" fill="white"/>
</svg>
