<svg width="48" height="48" viewBox="0 0 48 48" fill="none" xmlns="http://www.w3.org/2000/svg">
<mask id="mask0_224_50182" style="mask-type:alpha" maskUnits="userSpaceOnUse" x="0" y="0" width="48" height="48">
<rect width="48" height="48" fill="#D9D9D9"/>
</mask>
<g mask="url(#mask0_224_50182)">
<path d="M22 42V38H38V23.8C38 19.9 36.6417 16.5917 33.925 13.875C31.2083 11.1583 27.9 9.8 24 9.8C20.1 9.8 16.7917 11.1583 14.075 13.875C11.3583 16.5917 10 19.9 10 23.8V36H8C6.9 36 5.95833 35.6083 5.175 34.825C4.39167 34.0417 4 33.1 4 32V28C4 27.3 4.175 26.6417 4.525 26.025C4.875 25.4083 5.36667 24.9167 6 24.55L6.15 21.9C6.41667 19.6333 7.075 17.5333 8.125 15.6C9.175 13.6667 10.4917 11.9833 12.075 10.55C13.6583 9.11667 15.475 8 17.525 7.2C19.575 6.4 21.7333 6 24 6C26.2667 6 28.4167 6.4 30.45 7.2C32.4833 8 34.3 9.10833 35.9 10.525C37.5 11.9417 38.8167 13.6167 39.85 15.55C40.8833 17.4833 41.55 19.5833 41.85 21.85L42 24.45C42.6333 24.75 43.125 25.2 43.475 25.8C43.825 26.4 44 27.0333 44 27.7V32.3C44 32.9667 43.825 33.6 43.475 34.2C43.125 34.8 42.6333 35.25 42 35.55V38C42 39.1 41.6083 40.0417 40.825 40.825C40.0417 41.6083 39.1 42 38 42H22ZM18 28C17.4333 28 16.9583 27.8083 16.575 27.425C16.1917 27.0417 16 26.5667 16 26C16 25.4333 16.1917 24.9583 16.575 24.575C16.9583 24.1917 17.4333 24 18 24C18.5667 24 19.0417 24.1917 19.425 24.575C19.8083 24.9583 20 25.4333 20 26C20 26.5667 19.8083 27.0417 19.425 27.425C19.0417 27.8083 18.5667 28 18 28ZM30 28C29.4333 28 28.9583 27.8083 28.575 27.425C28.1917 27.0417 28 26.5667 28 26C28 25.4333 28.1917 24.9583 28.575 24.575C28.9583 24.1917 29.4333 24 30 24C30.5667 24 31.0417 24.1917 31.425 24.575C31.8083 24.9583 32 25.4333 32 26C32 26.5667 31.8083 27.0417 31.425 27.425C31.0417 27.8083 30.5667 28 30 28ZM12.05 24.9C11.8167 21.3667 12.8833 18.3333 15.25 15.8C17.6167 13.2667 20.5667 12 24.1 12C27.0667 12 29.675 12.9417 31.925 14.825C34.175 16.7083 35.5333 19.1167 36 22.05C32.9667 22.0167 30.175 21.2 27.625 19.6C25.075 18 23.1167 15.8333 21.75 13.1C21.2167 15.7667 20.0917 18.1417 18.375 20.225C16.6583 22.3083 14.55 23.8667 12.05 24.9Z" fill="#B5BECA"/>
</g>
</svg>
