<svg width="349" height="306" viewBox="0 0 349 306" fill="none"
  xmlns="http://www.w3.org/2000/svg">
  <mask id="mask0_962_18127" style="mask-type:alpha" maskUnits="userSpaceOnUse" x="0" y="41" width="66" height="66">
    <rect y="41.7637" width="65.1215" height="65.1215" fill="#D9D9D9"/>
  </mask>
  <g mask="url(#mask0_962_18127)">
    <path d="M29.8458 96.0335V62.9979L14.6508 78.1929L10.8521 74.3263L32.5592 52.6191L54.2664 74.3263L50.4677 78.1929L35.2726 62.9979V96.0335H29.8458Z" fill="#B5BECA"/>
  </g>
  <mask id="mask1_962_18127" style="mask-type:alpha" maskUnits="userSpaceOnUse" x="246" y="83" width="103" height="104">
    <rect x="246.087" y="83.7012" width="102.692" height="102.692" fill="#D9D9D9"/>
  </mask>
  <g mask="url(#mask1_962_18127)">
    <path d="M293.151 169.281V117.187L269.19 141.148L263.199 135.051L297.43 100.82L331.661 135.051L325.67 141.148L301.709 117.187V169.281H293.151Z" fill="#B5BECA"/>
  </g>
  <mask id="mask2_962_18127" style="mask-type:alpha" maskUnits="userSpaceOnUse" x="179" y="7" width="104" height="104">
    <rect x="179.71" y="7.94434" width="102.692" height="102.692" fill="#D9D9D9"/>
  </mask>
  <g mask="url(#mask2_962_18127)">
    <path d="M226.775 93.5236V41.429L202.814 65.3903L196.824 59.293L231.054 25.0625L265.285 59.293L259.295 65.3903L235.333 41.429V93.5236H226.775Z" fill="#F6F8FE"/>
  </g>
  <mask id="mask3_962_18127" style="mask-type:alpha" maskUnits="userSpaceOnUse" x="-13" y="110" width="104" height="104">
    <rect x="-12.5237" y="110.636" width="102.692" height="102.692" fill="#D9D9D9"/>
  </mask>
  <g mask="url(#mask3_962_18127)">
    <path d="M34.5418 196.215V144.12L10.5804 168.082L4.59009 161.984L38.8207 127.754L73.0512 161.984L67.0609 168.082L43.0995 144.12V196.215H34.5418Z" fill="#F6F8FE"/>
  </g>
  <mask id="mask4_962_18127" style="mask-type:alpha" maskUnits="userSpaceOnUse" x="135" y="209" width="104" height="104">
    <rect x="135.878" y="209.57" width="102.692" height="102.692" fill="#D9D9D9"/>
  </mask>
  <g mask="url(#mask4_962_18127)">
    <path d="M182.944 295.15V243.055L158.983 267.016L152.992 260.919L187.223 226.688L221.453 260.919L215.463 267.016L191.502 243.055V295.15H182.944Z" fill="#F6F8FE"/>
  </g>
  <mask id="mask5_962_18127" style="mask-type:alpha" maskUnits="userSpaceOnUse" x="72" y="-14" width="85" height="85">
    <rect x="72.6353" y="-13.3457" width="83.9066" height="83.9065" fill="#D9D9D9"/>
  </mask>
  <g mask="url(#mask5_962_18127)">
    <path d="M111.091 56.5783V14.0132L91.5132 33.5914L86.6187 28.6095L114.588 0.640625L142.556 28.6095L137.662 33.5914L118.084 14.0132V56.5783H111.091Z" fill="#F6F8FE"/>
  </g>
  <path d="M256.794 150.155L259.039 149.055L256.794 150.155C257.217 151.017 257.109 152.044 256.517 152.799L244.965 167.523L246.931 169.067L244.964 167.523C243.87 168.919 243.305 170.657 243.37 172.43L244.061 191.132C244.097 192.091 243.58 192.986 242.732 193.434L226.19 202.188C224.622 203.017 223.399 204.375 222.738 206.021L215.762 223.388C215.404 224.278 214.569 224.885 213.611 224.95L194.939 226.218C193.169 226.338 191.499 227.082 190.226 228.317L176.789 241.344C176.101 242.012 175.09 242.227 174.189 241.897L156.615 235.461C154.95 234.851 153.122 234.851 151.457 235.461L133.883 241.897C132.982 242.227 131.972 242.012 131.283 241.344L117.846 228.316C116.573 227.082 114.903 226.338 113.134 226.218L94.461 224.95C93.5038 224.885 92.6682 224.278 92.3105 223.388L85.3345 206.021C84.6734 204.375 83.4504 203.017 81.8827 202.188L65.3402 193.434C64.4921 192.986 63.9757 192.091 64.0111 191.132L64.7019 172.43C64.7674 170.657 64.2026 168.919 63.1078 167.523L61.1409 169.067L63.1078 167.523L51.5557 152.799C50.9635 152.044 50.8556 151.017 51.2779 150.155L59.516 133.35C60.2968 131.758 60.4878 129.94 60.0553 128.22L55.4911 110.069C55.2571 109.139 55.5762 108.157 56.3125 107.541L70.6736 95.5401L69.0705 93.6217L70.6736 95.5401C72.0345 94.4027 72.9484 92.8199 73.2529 91.0726L76.4657 72.6349C76.6304 71.6897 77.3216 70.9221 78.2444 70.6595L96.2452 65.537C97.9511 65.0515 99.4298 63.9772 100.419 62.5048L110.853 46.9679C111.388 46.1714 112.332 45.7513 113.281 45.8868L131.809 48.5287C133.565 48.7791 135.353 48.3991 136.855 47.4562L152.707 37.5066C153.52 36.9965 154.553 36.9965 155.365 37.5066L171.217 47.4562C172.719 48.3991 174.507 48.7791 176.263 48.5287L194.791 45.8868C195.741 45.7513 196.684 46.1714 197.219 46.9679L207.654 62.5048C208.642 63.9772 210.121 65.0515 211.827 65.537L229.828 70.6595C230.751 70.9221 231.442 71.6897 231.607 72.6349L234.819 91.0726C235.124 92.8199 236.038 94.4027 237.399 95.5401L251.76 107.541C252.496 108.157 252.815 109.139 252.581 110.069L248.017 128.22C247.585 129.94 247.776 131.758 248.556 133.35L256.794 150.155Z" fill="#FAFBFB" stroke="#FF4E4E" stroke-width="5"/>
  <path fill-rule="evenodd" clip-rule="evenodd" d="M191.204 192.47C193.503 187.252 191.857 181.409 190.281 175.811C188.696 170.184 187.181 164.804 189.812 160.556C191.218 158.286 193.191 155.919 195.35 153.329C201.248 146.252 208.536 137.508 209.458 124.508C209.922 117.917 208.972 113.658 204.133 106.432C187.814 82.0417 136.424 62.6082 115.403 77.0244C111.963 79.3819 109.517 81.2274 105.461 84.9304C97.2389 92.4337 95.377 100.154 97.306 109.187C97.4036 109.643 97.5122 110.167 97.6341 110.755C99.9248 121.803 106.922 155.551 134.378 191.024C151.304 211.112 156.474 209.927 160.79 208.937C161.167 208.85 161.538 208.765 161.91 208.696C166.532 207.836 186.593 202.938 191.206 192.478L191.204 192.47ZM180.87 188.916C172.508 195.968 164.305 192.276 151.427 176.986C138.548 161.695 99.2502 105.317 120.704 87.2268C142.166 69.1348 182.541 95.0891 195.121 110.013C207.698 124.941 193.054 140.124 184.433 147.39C180.09 151.05 181.341 159.77 182.582 168.425C183.804 176.949 185.018 185.409 180.868 188.909L180.87 188.916ZM132.157 139.197L157.763 153.763L183.227 138.9L157.868 174.14L132.157 139.197ZM130.74 131.826L157.919 90.7369L184.547 131.513L157.724 147.183L130.74 131.826ZM175.738 182.439C181.69 178.686 174.747 159.995 174.747 159.995L174.745 159.988L162.152 177.669C162.152 177.669 169.787 186.192 175.738 182.439ZM152.473 88.7318C152.473 88.7318 127.753 84.4608 122.411 93.9013C115.959 105.307 126.389 126.778 126.389 126.778L152.473 88.7318ZM194.002 119.122C193.677 111.591 169.08 96.0019 169.08 96.0019L189.38 128.578C189.38 128.578 194.327 126.652 194.002 119.122Z" fill="#FF4E4E"/>
  <rect x="156.847" y="178.883" width="161.373" height="73.3512" rx="20" fill="black"/>
  <path d="M259.632 198.836C263.955 198.836 267.09 201.972 267.09 206.803C267.09 211.591 263.955 214.769 259.632 214.769C255.31 214.769 252.132 211.591 252.132 206.803C252.132 201.972 255.31 198.836 259.632 198.836ZM283.151 199.302L262.259 230.999H256.284L277.176 199.302H283.151ZM259.632 203.158C257.852 203.158 256.666 204.472 256.666 206.803C256.666 209.091 257.852 210.489 259.632 210.489C261.37 210.489 262.556 209.133 262.556 206.803C262.556 204.472 261.412 203.158 259.632 203.158ZM279.846 215.532C284.168 215.532 287.304 218.626 287.304 223.456C287.304 228.287 284.168 231.466 279.846 231.466C275.523 231.466 272.345 228.287 272.345 223.456C272.345 218.626 275.523 215.532 279.846 215.532ZM279.846 219.812C278.023 219.812 276.879 221.168 276.879 223.456C276.879 225.787 278.066 227.143 279.846 227.143C281.625 227.143 282.769 225.829 282.769 223.456C282.769 221.168 281.625 219.812 279.846 219.812Z" fill="white"/>
  <path d="M237.32 198.836C244.354 198.836 249.312 204.599 249.312 215.151C249.312 225.66 244.354 231.466 237.32 231.466C230.201 231.466 225.285 225.66 225.285 215.151C225.285 204.599 230.201 198.836 237.32 198.836ZM237.32 204.641C233.591 204.641 231.938 208.286 231.938 215.151C231.938 222.016 233.591 225.66 237.32 225.66C241.006 225.66 242.659 222.016 242.659 215.151C242.659 208.286 241.006 204.641 237.32 204.641Z" fill="white"/>
  <path d="M220.551 199.302V230.999H214.025V207.523L209.999 210.362L207.117 205.192L215.762 199.302H220.551Z" fill="white"/>
  <path d="M198.77 205.065V212.524H206.058V218.117H198.77V225.66H192.752V218.117H185.464V212.524H192.752V205.065H198.77Z" fill="white"/>
  <mask id="mask6_962_18127" style="mask-type:alpha" maskUnits="userSpaceOnUse" x="21" y="172" width="135" height="134">
    <rect x="21.9153" y="172" width="134" height="134" fill="#D9D9D9"/>
  </mask>
  <g mask="url(#mask6_962_18127)">
    <path d="M83.3307 283.669V215.692L52.064 246.959L44.2473 239.003L88.914 194.336L133.581 239.003L125.764 246.959L94.4973 215.692V283.669H83.3307Z" fill="#B5BECA"/>
  </g>
</svg>
