<svg width="41" height="33" viewBox="0 0 41 33" fill="none" xmlns="http://www.w3.org/2000/svg">
<path d="M40.3979 3.88661C38.9116 4.54644 37.3142 4.99082 35.6376 5.19113C37.3495 4.16603 38.6641 2.5417 39.2819 0.605968C37.6811 1.55532 35.907 2.24545 34.0184 2.61745C32.5085 1.00658 30.3523 0 27.9688 0C22.6178 0 18.6857 4.9925 19.8943 10.1752C13.0081 9.83015 6.9013 6.53099 2.8127 1.5166C0.641316 5.24162 1.68661 10.1146 5.37628 12.5823C4.01959 12.5385 2.74032 12.1665 1.62433 11.5454C1.53344 15.3849 4.28554 18.9769 8.27146 19.7764C7.10497 20.0929 5.82739 20.167 4.52793 19.9178C5.58164 23.2103 8.64178 25.6055 12.2709 25.6728C8.78654 28.4048 4.39663 29.6251 0 29.1067C3.66779 31.4582 8.02571 32.83 12.7051 32.83C28.0933 32.83 36.7873 19.8337 36.2621 8.1772C37.8814 7.00735 39.2869 5.54797 40.3979 3.88661Z" fill="#B5BECA"/>
</svg>
