<svg width="123" height="123" viewBox="0 0 123 123" fill="none" xmlns="http://www.w3.org/2000/svg">
<mask id="mask0_186_28244" style="mask-type:alpha" maskUnits="userSpaceOnUse" x="0" y="0" width="123" height="123">
<rect x="0.956055" y="0.663025" width="121.41" height="121.41" fill="#D9D9D9"/>
</mask>
<g mask="url(#mask0_186_28244)">
<path d="M63.0544 96.7789C64.0662 96.6946 64.9304 96.2941 65.647 95.5774C66.3637 94.8608 66.722 93.9966 66.722 92.9848C66.722 91.8045 66.3426 90.8559 65.5838 90.1393C64.825 89.4226 63.8554 89.1065 62.675 89.1908C59.2182 89.4437 55.5506 88.4952 51.6723 86.3452C47.7939 84.1953 45.3488 80.2958 44.3371 74.6469C44.1685 73.7195 43.7258 72.9607 43.0092 72.3705C42.2925 71.7803 41.4705 71.4852 40.543 71.4852C39.3627 71.4852 38.3931 71.9278 37.6343 72.8131C36.8754 73.6984 36.6225 74.7312 36.8754 75.9116C38.3088 83.584 41.6812 89.0643 46.9929 92.3525C52.3046 95.6407 57.6584 97.1161 63.0544 96.7789ZM61.6633 111.955C50.1125 111.955 40.4798 107.992 32.7652 100.067C25.0506 92.1417 21.1934 82.2772 21.1934 70.4734C21.1934 62.0422 24.5448 52.8732 31.2476 42.9666C37.9504 33.0599 48.089 22.3311 61.6633 10.7803C75.2375 22.3311 85.3761 33.0599 92.0789 42.9666C98.7817 52.8732 102.133 62.0422 102.133 70.4734C102.133 82.2772 98.2759 92.1417 90.5613 100.067C82.8467 107.992 73.214 111.955 61.6633 111.955ZM61.6633 101.838C70.4317 101.838 77.6826 98.8656 83.4158 92.9216C89.1491 86.9776 92.0157 79.4949 92.0157 70.4734C92.0157 64.3186 89.4652 57.3629 84.3643 49.6061C79.2635 41.8494 71.6964 33.376 61.6633 24.186C51.6301 33.376 44.0631 41.8494 38.9622 49.6061C33.8613 57.3629 31.3108 64.3186 31.3108 70.4734C31.3108 79.4949 34.1775 86.9776 39.9107 92.9216C45.6439 98.8656 52.8948 101.838 61.6633 101.838Z" fill="#FAFBFB"/>
</g>
</svg>
