<svg width="140" height="141" viewBox="0 0 140 141" fill="none" xmlns="http://www.w3.org/2000/svg">
<g clip-path="url(#clip0_208_41847)" filter="url(#filter0_d_208_41847)">
<path d="M70 132.868C61.0917 132.868 52.4487 131.111 44.3088 127.647C36.4482 124.3 29.3932 119.509 23.3301 113.411C17.2717 107.313 12.5125 100.207 9.18761 92.2945C5.74628 84.1009 4 75.4012 4 66.4342C4 57.4673 5.74628 48.7675 9.18761 40.5739C12.5125 32.6616 17.2717 25.5603 23.3301 19.4573C29.3932 13.359 36.4482 8.56853 44.3088 5.22174C52.4487 1.75777 61.0917 0 70 0C78.9083 0 87.5513 1.75777 95.6912 5.22174C103.552 8.56853 110.607 13.359 116.67 19.4573C122.728 25.5556 127.487 32.6616 130.812 40.5739C134.254 48.7675 136 57.4673 136 66.4342C136 75.4012 134.254 84.1009 130.812 92.2945C127.487 100.207 122.728 107.308 116.67 113.411C110.611 119.509 103.552 124.3 95.6912 127.647C87.5513 131.115 78.9083 132.868 70 132.868Z" fill="white"/>
<path d="M69.9999 129.348C104.519 129.348 132.503 101.181 132.503 66.4342C132.503 31.6878 104.519 3.52022 69.9999 3.52022C35.4805 3.52022 7.49707 31.6878 7.49707 66.4342C7.49707 101.181 35.4805 129.348 69.9999 129.348Z" fill="black"/>
<path d="M71.5361 54.6173V83.6041L99.7281 66.4061L71.5361 54.6173Z" fill="white"/>
<path d="M71.5361 51.3455L99.4719 63.0312L92.7942 52.0721L106.993 37.7803L98.508 29.2352L86.3446 41.4833L71.5361 17.1839V51.3455Z" fill="white"/>
<path d="M68.5376 83.6041V54.6173L40.3457 66.4061L68.5376 83.6041Z" fill="white"/>
<path d="M40.6017 63.0312L68.5375 51.3455V17.1839L53.7337 41.4833L41.5656 29.2352L33.0811 37.7803L47.2795 52.0674L40.6017 63.0312Z" fill="white"/>
<path d="M99.4114 75.4293L71.5361 92.4351V114.958L83.0057 98.688L94.9782 110.739L103.463 102.199L90.0513 88.6992L99.4114 75.4293Z" fill="white"/>
<path d="M68.5379 92.4351L40.6627 75.4293L50.0227 88.6992L36.6113 102.199L45.0959 110.739L57.0684 98.6927L68.5379 114.953V92.4351Z" fill="white"/>
</g>
<defs>
<filter id="filter0_d_208_41847" x="0" y="0" width="140" height="140.868" filterUnits="userSpaceOnUse" color-interpolation-filters="sRGB">
<feFlood flood-opacity="0" result="BackgroundImageFix"/>
<feColorMatrix in="SourceAlpha" type="matrix" values="0 0 0 0 0 0 0 0 0 0 0 0 0 0 0 0 0 0 127 0" result="hardAlpha"/>
<feOffset dy="4"/>
<feGaussianBlur stdDeviation="2"/>
<feComposite in2="hardAlpha" operator="out"/>
<feColorMatrix type="matrix" values="0 0 0 0 0 0 0 0 0 0 0 0 0 0 0 0 0 0 0.25 0"/>
<feBlend mode="normal" in2="BackgroundImageFix" result="effect1_dropShadow_208_41847"/>
<feBlend mode="normal" in="SourceGraphic" in2="effect1_dropShadow_208_41847" result="shape"/>
</filter>
<clipPath id="clip0_208_41847">
<rect width="132" height="132.868" fill="white" transform="translate(4)"/>
</clipPath>
</defs>
</svg>
