<svg width="40" height="40" viewBox="0 0 40 40" fill="none"
  xmlns="http://www.w3.org/2000/svg">
  <mask id="mask0_453_31867" style="mask-type:alpha" maskUnits="userSpaceOnUse" x="0" y="0" width="40" height="40">
    <rect width="40" height="40" fill="#D9D9D9"/>
  </mask>
  <g mask="url(#mask0_453_31867)">
    <path d="M20.0002 36.6664C17.9169 36.6664 15.9655 36.2705 14.1461 35.4789C12.3266 34.6872 10.7433 33.6178 9.39608 32.2706C8.04886 30.9233 6.97941 29.34 6.18775 27.5205C5.39608 25.7011 5.00024 23.7497 5.00024 21.6664C5.00024 19.583 5.39608 17.6317 6.18775 15.8122C6.97941 13.9928 8.04886 12.4094 9.39608 11.0622C10.7433 9.71499 12.3266 8.64555 14.1461 7.85388C15.9655 7.06222 17.9169 6.66638 20.0002 6.66638C22.0836 6.66638 24.035 7.06222 25.8544 7.85388C27.6739 8.64555 29.2572 9.71499 30.6044 11.0622C31.9516 12.4094 33.0211 13.9928 33.8128 15.8122C34.6044 17.6317 35.0003 19.583 35.0003 21.6664C35.0003 23.7497 34.6044 25.7011 33.8128 27.5205C33.0211 29.34 31.9516 30.9233 30.6044 32.2706C29.2572 33.6178 27.6739 34.6872 25.8544 35.4789C24.035 36.2705 22.0836 36.6664 20.0002 36.6664ZM24.6669 28.6664L27.0003 26.333L21.6669 20.9997V13.333H18.3336V22.333L24.6669 28.6664ZM9.33358 3.91638L11.6669 6.24972L4.58358 13.333L2.25024 10.9997L9.33358 3.91638ZM30.6669 3.91638L37.7503 10.9997L35.4169 13.333L28.3336 6.24972L30.6669 3.91638ZM20.0002 33.333C23.2502 33.333 26.0072 32.2011 28.2711 29.9372C30.535 27.6733 31.6669 24.9164 31.6669 21.6664C31.6669 18.4164 30.535 15.6594 28.2711 13.3955C26.0072 11.1317 23.2502 9.99972 20.0002 9.99972C16.7502 9.99972 13.9933 11.1317 11.7294 13.3955C9.46552 15.6594 8.33358 18.4164 8.33358 21.6664C8.33358 24.9164 9.46552 27.6733 11.7294 29.9372C13.9933 32.2011 16.7502 33.333 20.0002 33.333Z" fill="#FF4E4E"/>
  </g>
</svg>
