<svg width="48" height="48" viewBox="0 0 48 48" fill="none"
  xmlns="http://www.w3.org/2000/svg">
  <path d="M24 48C37.2548 48 48 37.2548 48 24C48 10.7452 37.2548 0 24 0C10.7452 0 0 10.7452 0 24C0 37.2548 10.7452 48 24 48Z" fill="#EAEDF2"/>
  <g clip-path="url(#clip0_171_16752)">
    <path d="M23.9969 8L23.7786 8.72902V29.8834L23.9969 30.0975L33.994 24.2931L23.9969 8Z" fill="#343434"/>
    <path d="M23.997 8L14 24.2931L23.997 30.0976V19.8299V8Z" fill="#8C8C8C"/>
    <path d="M23.9971 31.9567L23.874 32.1041V39.6397L23.9971 39.9928L34 26.1553L23.9971 31.9567Z" fill="#3C3C3B"/>
    <path d="M23.997 39.9928V31.9567L14 26.1553L23.997 39.9928Z" fill="#8C8C8C"/>
    <path d="M23.9971 30.0975L33.9939 24.2932L23.9971 19.83V30.0975Z" fill="#141414"/>
    <path d="M14 24.2932L23.9969 30.0975V19.83L14 24.2932Z" fill="#393939"/>
  </g>
  <defs>
    <clipPath id="clip0_171_16752">
      <rect width="20" height="32" fill="white" transform="translate(14 8)"/>
    </clipPath>
  </defs>
</svg>
