<svg width="607" height="119" viewBox="0 0 607 119" fill="none"
  xmlns="http://www.w3.org/2000/svg">
  <path d="M113.58 92.9278L99.2649 68.3126C98.9368 68.3126 98.7317 68.3126 98.4445 68.3126H87.5336V92.9278H73.2592V20.8081H98.4445C116.124 20.8081 126.706 30.383 126.706 44.8891C126.706 54.7927 121.866 61.9841 113.129 65.6004L129.578 92.8867H113.58V92.9278ZM87.5746 55.5324H100.331C108.248 55.5324 111.94 50.3957 111.94 44.9302C111.94 39.2592 108.125 34.2047 100.331 34.2047H87.5746V55.5324ZM136.141 92.9278V20.8081H150.415V92.8867H136.141V92.9278ZM216.619 85.4076C212.722 89.8457 204.19 94.366 194.838 94.366C174.165 94.366 157.511 78.6271 157.511 56.8885C157.511 35.1499 174.165 19.4109 194.838 19.4109C209.113 19.5342 221.049 26.9311 227.53 38.4785L212.927 42.3002C209.031 36.958 201.934 33.5472 194.838 33.5472C181.384 33.5472 172.442 43.2453 172.442 56.9296C172.442 71.2302 182.328 80.3941 195.659 80.3941C208.005 80.3941 214.486 73.6137 216.742 68.0249V64.9429H196.807V53.2722H228.966V92.9278H216.619C216.619 86.9692 216.742 85.5309 216.742 85.4076H216.619ZM239.015 92.9278V20.8081H253.29V92.8867H239.015V92.9278ZM327 20.8081V92.8867H313.546L293.078 65.0662C286.597 56.1899 278.68 44.8891 278.598 44.8891H278.475C278.393 44.8891 278.598 55.2858 278.598 69.5865V92.8456H264.324V20.8081H277.778L298.656 48.9163C303.578 55.4091 312.643 68.2715 312.726 68.2715H312.849C312.972 68.2715 312.726 56.5186 312.726 44.396V20.8081H327ZM63.0455 37.5744L51.3963 49.245C51.8475 51.5463 52.0936 54.0941 52.0936 56.8474C52.0936 71.6001 45.1614 80.4352 33.5532 80.4352C28.713 80.4352 24.6522 78.8737 21.5758 75.9149L61.938 35.4786C60.8715 33.5472 59.641 31.7802 58.2464 30.1364C57.6721 29.4378 57.0568 28.8214 56.4415 28.1639C56.3595 28.0817 56.2775 27.9995 56.1954 27.9174C55.9903 27.753 55.8263 27.5475 55.6212 27.3831C49.7145 21.8766 42.2081 19 33.5532 19C23.5857 19 15.0538 22.8217 8.94205 30.0953C3.15843 36.958 0 46.4507 0 56.8474C0 63.7512 1.39463 70.244 4.01982 75.8327L15.7511 64.0799C15.3409 61.8608 15.1359 59.4363 15.1359 56.8063C15.1359 50.0258 16.5305 44.5193 19.2377 40.451C22.4372 35.7252 27.4004 33.2185 33.5532 33.2185C38.3524 33.2185 42.3722 34.7389 45.4075 37.5744L5.12732 77.9285C6.23482 79.9421 7.5064 81.8324 8.94205 83.5173C9.22918 83.846 9.51631 84.1748 9.84446 84.5035C10.1726 84.8734 10.5418 85.2432 10.9109 85.6131C10.952 85.6542 10.993 85.6953 11.034 85.7363C11.157 85.8596 11.2391 85.9829 11.3621 86.0651C17.2278 91.6539 24.8162 94.6126 33.5532 94.6126C43.5617 94.6126 52.0936 90.7909 58.2464 83.5173C64.03 76.6546 67.2294 67.203 67.2294 56.8063C67.2294 49.8204 65.7528 43.2043 63.0455 37.5744Z" fill="#0074F0"/>
  <path d="M400.042 20.8978V31.0191H366.208V50.8761H395.801V60.8046H366.208V82.7823H400.042V93H354.738V20.8978H400.042ZM416.798 19.6447C420.557 19.6447 423.641 22.6329 423.641 26.3922C423.641 30.1515 420.557 33.1397 416.798 33.1397C413.038 33.1397 410.05 30.1515 410.05 26.3922C410.05 22.6329 413.135 19.6447 416.798 19.6447ZM422.196 43.5502V93H411.4V43.5502H422.196ZM457.917 42.6827C465.628 42.6827 471.508 45.96 474.207 50.4905V43.5502H484.425V95.4098C484.425 109.58 474.786 118.448 460.134 118.448C445.578 118.448 437.481 111.026 435.554 100.326L446.35 99.9403C447.314 105.724 452.615 109.29 459.845 109.29C468.038 109.29 473.629 104.76 473.629 96.181V87.12C470.93 90.9757 465.339 93.9639 457.917 93.9639C444.133 93.9639 434.108 84.1318 434.108 68.3233C434.108 52.6112 444.133 42.6827 457.917 42.6827ZM459.652 52.0328C451.266 52.0328 445.097 57.8164 445.097 68.3233C445.097 78.8302 451.266 84.7102 459.652 84.7102C467.749 84.7102 473.629 79.4085 473.629 69.6728V67.0702C473.629 57.2381 467.749 52.0328 459.652 52.0328ZM543.577 67.0702V72.3718H507.236C507.815 79.8905 512.924 84.6138 520.442 84.6138C526.708 84.6138 530.853 82.0112 532.202 77.5771L543.095 78.1554C541.167 86.9272 532.202 93.9639 520.731 93.9639C506.176 93.9639 495.766 84.3246 495.766 68.3233C495.766 52.2256 506.08 42.6827 520.442 42.6827C534.612 42.6827 543.577 52.0328 543.577 67.0702ZM520.346 51.9364C513.116 51.9364 507.815 56.1777 507.333 63.8892H532.684C532.395 56.7561 528.346 51.9364 520.346 51.9364ZM580.196 42.6827C591.474 42.6827 599.474 50.3941 599.474 63.2145V93H588.582V64.6604C588.582 57.2381 584.34 52.7076 577.786 52.7076C570.942 52.7076 566.315 57.9128 566.315 64.7567V93H555.519V43.5502H565.737V50.105C568.243 45.7673 572.966 42.6827 580.196 42.6827Z" fill="white"/>
</svg>
