<svg width="16" height="16" viewBox="0 0 16 16" fill="none" xmlns="http://www.w3.org/2000/svg">
<path d="M0 1.99997C0 1.52497 0.382143 1.14282 0.857143 1.14282H15.1429C15.6179 1.14282 16 1.52497 16 1.99997C16 2.47497 15.6179 2.85711 15.1429 2.85711H0.857143C0.382143 2.85711 0 2.47497 0 1.99997ZM0 7.71425C0 7.23925 0.382143 6.85711 0.857143 6.85711H15.1429C15.6179 6.85711 16 7.23925 16 7.71425C16 8.18925 15.6179 8.57139 15.1429 8.57139H0.857143C0.382143 8.57139 0 8.18925 0 7.71425ZM16 13.4285C16 13.9035 15.6179 14.2857 15.1429 14.2857H0.857143C0.382143 14.2857 0 13.9035 0 13.4285C0 12.9535 0.382143 12.5714 0.857143 12.5714H15.1429C15.6179 12.5714 16 12.9535 16 13.4285Z" fill="#828699"/>
</svg>
