<svg width="25" height="25" viewBox="0 0 25 25" fill="none"
  xmlns="http://www.w3.org/2000/svg">
  <path d="M12.0804 24.9597C18.7077 24.9375 24.0623 19.547 24.0401 12.9196C24.0179 6.29222 18.6273 0.937671 11.9999 0.95988C5.37255 0.982088 0.0180034 6.37264 0.0402118 13C0.0624201 19.6274 5.45298 24.982 12.0804 24.9597Z" fill="#0074F0"/>
  <path opacity="0.2" d="M19.4757 20.4279C23.5764 16.2997 23.5559 9.62491 19.4277 5.52417C15.2996 1.42343 8.62479 1.44396 4.52405 5.57209L19.4757 20.4279Z" fill="white"/>
  <path d="M11.5116 8.27639C11.6722 8.25998 11.8351 8.25157 12 8.25157C14.6215 8.25157 16.7467 10.3767 16.7467 12.9982C16.7467 15.0425 15.4544 16.7849 13.6422 17.4532L12.0316 19.7182C15.7284 19.7011 18.72 16.699 18.72 12.9982C18.72 9.52314 16.0822 6.66412 12.6996 6.31422L11.5116 8.27639Z" fill="white"/>
  <path d="M11.8475 6.27994C8.20658 6.361 5.28 9.33785 5.28 12.9982C5.28 16.4227 7.84148 19.2489 11.153 19.6654L12.5402 17.7145C12.3629 17.7346 12.1826 17.7449 12 17.7449C9.37849 17.7449 7.25333 15.6198 7.25333 12.9982C7.25333 10.8975 8.61801 9.11551 10.5092 8.49041L11.8475 6.27994Z" fill="white"/>
  <path d="M13.6422 17.4532C15.4544 16.785 16.7467 15.0425 16.7467 12.9983H18.7201C18.7201 16.6991 15.7285 19.7012 12.0317 19.7182L13.6422 17.4532Z" fill="url(#paint0_linear_2_25147)"/>
  <path d="M11.8475 6.27994C8.20658 6.361 5.28 9.33785 5.28 12.9982C5.28 12.9982 7.25333 13.0266 7.25333 12.9982C7.25333 10.8975 8.61801 9.11551 10.5092 8.49041L11.8475 6.27994Z" fill="url(#paint1_linear_2_25147)"/>
  <path d="M11.9879 18.4917L15.362 13.7401L11.9879 15.7314L8.61554 13.7401L11.9879 18.4917Z" fill="white"/>
  <path opacity="0.1" d="M11.9879 18.4917L15.362 13.7401L11.9879 15.7314V18.4917Z" fill="#0074F0"/>
  <path d="M11.9776 15.1008L15.3686 13.1058L11.9776 7.50507L8.5867 13.1058L11.9776 15.1008Z" fill="url(#paint2_linear_2_25147)"/>
  <path d="M11.9776 15.1008L15.3686 13.1058L11.9776 7.50507L8.5867 13.1058L11.9776 15.1008Z" fill="white"/>
  <path opacity="0.1" d="M11.9776 15.1006L8.58667 13.1058L11.9776 7.50507L11.9776 15.1006Z" fill="#0074F0"/>
  <path opacity="0.1" d="M11.9776 15.1008V11.5161L8.58667 13.1058L11.9776 15.1008Z" fill="#0074F0"/>
  <path opacity="0.1" d="M11.9777 15.1008V11.5161L15.3686 13.1058L11.9777 15.1008Z" fill="#0074F0"/>
  <defs>
    <linearGradient id="paint0_linear_2_25147" x1="7.57565" y1="21.4183" x2="14.9765" y2="16.5703" gradientUnits="userSpaceOnUse">
      <stop stop-color="#1A82FF" stop-opacity="0.5"/>
      <stop offset="1" stop-color="white"/>
    </linearGradient>
    <linearGradient id="paint1_linear_2_25147" x1="15.6267" y1="3.18671" x2="8.54551" y2="8.30308" gradientUnits="userSpaceOnUse">
      <stop stop-color="#1A82FF" stop-opacity="0.5"/>
      <stop offset="1" stop-color="white"/>
    </linearGradient>
    <linearGradient id="paint2_linear_2_25147" x1="4.7635" y1="9.53325" x2="10.7041" y2="13.1586" gradientUnits="userSpaceOnUse">
      <stop stop-color="#1C313F"/>
      <stop offset="1" stop-color="white"/>
    </linearGradient>
  </defs>
</svg>
