<svg width="147" height="36" viewBox="0 0 147 36" fill="none"
  xmlns="http://www.w3.org/2000/svg">
  <path d="M37.3186 8.72009H41.6526C43.1145 8.72009 44.2114 9.11194 44.9432 9.89722C45.6749 10.6825 46.04 11.8329 46.04 13.3483V15.1943C46.04 16.7098 45.6749 17.8601 44.9432 18.6454C44.2114 19.4307 43.1145 19.8225 41.6526 19.8225H40.2614V27.4471H37.3186V8.72009ZM41.6526 17.1472C42.1341 17.1472 42.4961 17.0135 42.7353 16.746C42.976 16.4784 43.0972 16.0236 43.0972 15.3816V13.1611C43.0972 12.519 42.976 12.0642 42.7353 11.7967C42.4945 11.5291 42.1341 11.3954 41.6526 11.3954H40.2614V17.1472H41.6526Z" fill="black"/>
  <path d="M47.6451 8.72009H52.0058C53.5213 8.72009 54.6276 9.0726 55.3232 9.77604C56.0188 10.4811 56.3666 11.5638 56.3666 13.0273V14.1777C56.3666 16.1212 55.7245 17.3518 54.4404 17.8696V17.9231C55.1532 18.1371 55.6568 18.5746 55.9511 19.234C56.2454 19.8933 56.3917 20.7762 56.3917 21.8825V25.1731C56.3917 25.7082 56.4091 26.1409 56.4452 26.4714C56.4814 26.8019 56.5696 27.1276 56.7128 27.4487H53.7165C53.6094 27.145 53.5386 26.8601 53.5024 26.5926C53.4662 26.3251 53.4489 25.8435 53.4489 25.1479V21.7236C53.4489 20.8675 53.3104 20.2695 53.0335 19.9311C52.7565 19.5928 52.2797 19.4228 51.603 19.4228H50.5864V27.4487H47.6436V8.72009H47.6451ZM51.6581 16.746C52.2466 16.746 52.6873 16.5949 52.9831 16.2912C53.2774 15.9874 53.4253 15.4791 53.4253 14.7662V13.3216C53.4253 12.6433 53.3041 12.1539 53.0634 11.8502C52.8226 11.5465 52.4433 11.3954 51.9272 11.3954H50.5895V16.746H51.6596H51.6581Z" fill="black"/>
  <path d="M58.4265 8.72009H61.3693V27.4471H58.4265V8.72009Z" fill="black"/>
  <path d="M63.5632 8.72009H67.7634L69.6361 22.1233H69.6896L71.5623 8.72009H75.7625V27.4471H72.9802V13.2681H72.9267L70.7865 27.4471H68.3252L66.185 13.2681H66.1315V27.4471H63.5632V8.72009Z" fill="black"/>
  <path d="M77.9546 8.72009H85.9805V11.3954H80.8974V16.3447H84.9371V19.0199H80.8974V24.7718H85.9805V27.4471H77.9546V8.72009Z" fill="black"/>
  <path d="M88.308 26.4981C87.5763 25.6861 87.2112 24.5231 87.2112 23.0077V21.9375H89.9935V23.2217C89.9935 24.435 90.5018 25.0409 91.5184 25.0409C92.0173 25.0409 92.3965 24.893 92.6546 24.5987C92.9127 24.3044 93.0417 23.8276 93.0417 23.1682C93.0417 22.3829 92.8639 21.692 92.5067 21.0956C92.1494 20.4976 91.4901 19.78 90.527 18.9428C89.3136 17.8727 88.467 16.9049 87.9854 16.0393C87.5039 15.1738 87.2631 14.1981 87.2631 13.1091C87.2631 11.6283 87.6377 10.4826 88.3867 9.67214C89.1358 8.86012 90.2232 8.4541 91.6506 8.4541C93.0779 8.4541 94.1244 8.86012 94.8483 9.67214C95.5707 10.4842 95.931 11.6471 95.931 13.1626V13.9384H93.1487V12.9753C93.1487 12.3333 93.0244 11.8643 92.7742 11.5716C92.524 11.2773 92.1589 11.1294 91.6773 11.1294C90.6969 11.1294 90.2059 11.7274 90.2059 12.9218C90.2059 13.6001 90.3885 14.2327 90.7536 14.8213C91.1187 15.4098 91.7828 16.1227 92.7475 16.9615C93.9781 18.0316 94.8247 19.0042 95.289 19.8776C95.7532 20.751 95.9846 21.777 95.9846 22.9542C95.9846 24.4885 95.6053 25.6656 94.8483 26.4855C94.0898 27.3054 92.9882 27.7162 91.5436 27.7162C90.0989 27.7162 89.0382 27.3102 88.3065 26.4981H88.308Z" fill="#FF1D1D"/>
  <path d="M99.9721 11.3954H96.8955V8.72009H105.991V11.3954H102.915V27.4471H99.9721V11.3954Z" fill="#FF1D1D"/>
  <path d="M108.453 8.72009H112.439L115.489 27.4471H112.546L112.011 23.7285V23.782H108.667L108.132 27.4471H105.403L108.453 8.72009ZM111.663 21.2404L110.352 11.9839H110.299L109.015 21.2404H111.663Z" fill="#FF1D1D"/>
  <path d="M116.907 8.72009H119.85V16.6122L123.595 8.72009H126.538L123.033 15.5956L126.591 27.4471H123.515L121.027 19.1002L119.85 21.4812V27.4471H116.907V8.72009Z" fill="#FF1D1D"/>
  <path d="M127.982 8.72009H136.008V11.3954H130.925V16.3447H134.965V19.0199H130.925V24.7718H136.008V27.4471H127.982V8.72009Z" fill="#FF1D1D"/>
  <path d="M137.694 8.72009H142.188C143.65 8.72009 144.747 9.11194 145.479 9.89722C146.211 10.6825 146.576 11.8329 146.576 13.3483V22.8189C146.576 24.3343 146.211 25.4847 145.479 26.27C144.747 27.0552 143.65 27.4471 142.188 27.4471H137.694V8.72009ZM142.135 24.7718C142.616 24.7718 142.986 24.6286 143.244 24.3438C143.502 24.0589 143.631 23.5947 143.631 22.9526V13.2146C143.631 12.5725 143.502 12.1083 143.244 11.8234C142.986 11.5386 142.615 11.3954 142.135 11.3954H140.637V24.7718H142.135Z" fill="#FF1D1D"/>
  <path fill-rule="evenodd" clip-rule="evenodd" d="M24.1149 31.1867C24.7008 29.8566 24.2813 28.367 23.8794 26.94C23.4754 25.5054 23.0891 24.134 23.7599 23.0511C24.1184 22.4723 24.6213 21.869 25.1716 21.2087C26.6752 19.4047 28.5331 17.1757 28.7682 13.8616C28.8865 12.1814 28.6442 11.0957 27.4108 9.25359C23.2506 3.03597 10.15 -1.91809 4.79145 1.75693C3.91449 2.35791 3.29083 2.82839 2.25691 3.77236C0.160974 5.68511 -0.313663 7.6532 0.178071 9.95584C0.20296 10.0722 0.230644 10.2057 0.261727 10.3556C0.845679 13.172 2.62947 21.7753 9.62863 30.8181C13.9435 35.9389 15.2613 35.6368 16.3616 35.3845C16.4578 35.3624 16.5523 35.3407 16.6471 35.3231C17.8253 35.1037 22.9393 33.8551 24.1153 31.1886L24.1149 31.1867ZM21.4804 30.2807C19.3487 32.0785 17.2578 31.1373 13.9747 27.2393C10.6917 23.3413 0.673695 8.96946 6.14288 4.35777C11.6139 -0.254292 21.9065 6.36205 25.1133 10.1665C28.3195 13.9721 24.5864 17.8424 22.3887 19.6947C21.2816 20.6278 21.6004 22.8508 21.9168 25.057C22.2285 27.23 22.5378 29.3867 21.4801 30.2788L21.4804 30.2807ZM9.06265 17.6067L15.5901 21.32L22.0816 17.5312L15.6169 26.5147L9.06265 17.6067ZM8.70137 15.7276L15.6298 5.25318L22.4179 15.648L15.5803 19.6425L8.70137 15.7276ZM20.1727 28.6299C21.6897 27.6733 19.9199 22.9084 19.9199 22.9084L19.9195 22.9066L16.7091 27.4139C16.7091 27.4139 18.6556 29.5866 20.1727 28.6299ZM14.2416 4.74205C14.2416 4.74205 7.93992 3.65329 6.57812 6.05989C4.93327 8.96749 7.59206 14.4409 7.59206 14.4409L14.2416 4.74205ZM24.8285 12.489C24.7457 10.5693 18.4753 6.59514 18.4753 6.59514L23.6503 14.8996C23.6503 14.8996 24.9113 14.4087 24.8285 12.489Z" fill="#FF1D1D"/>
</svg>
