<svg width="42" height="40" viewBox="0 0 42 40" fill="none"
  xmlns="http://www.w3.org/2000/svg">
  <path d="M30.214 2.10355C30.6608 2.14525 31.0819 2.17768 31.503 2.22401C31.6985 2.24486 31.8916 2.32131 32.0871 2.32131C33.2458 2.33058 34.4045 2.36301 35.5632 2.31899C37.0174 2.26571 38.2692 1.61939 39.4745 0.868828C39.9119 0.595475 40.3563 0.331387 40.8007 0.069616C40.8752 0.0256014 40.9752 0.0232849 41.0706 -0.00219727C41.4266 0.669604 41.6221 1.37152 41.7361 2.09197C41.8222 2.65026 41.9083 3.21782 41.9059 3.77842C41.9013 4.9923 41.6523 6.1668 41.1614 7.28569C40.703 8.33046 40.0934 9.28025 39.3209 10.1212C38.951 10.5242 38.7811 10.9528 38.7672 11.5204C38.7485 12.3729 38.6113 13.2253 38.4973 14.0732C38.2762 15.7249 37.7806 17.3048 37.1431 18.8384C36.5474 20.2723 35.8215 21.646 34.8861 22.89C34.3184 23.6475 33.6902 24.3634 33.055 25.0653C32.0475 26.1772 30.9004 27.1363 29.616 27.9123C28.797 28.4081 27.9385 28.8436 27.0845 29.2814C26.6611 29.4992 26.6471 29.4876 26.7448 30.0343C27.0613 31.8134 27.5034 33.5624 28.1316 35.2581C28.4852 36.2149 28.8761 37.1577 29.2182 38.1191C29.3601 38.5175 29.4578 38.9438 29.5067 39.3654C29.5555 39.78 29.3136 39.9654 28.8878 39.9932C28.0501 40.0488 27.2893 39.7708 26.5471 39.458C25.4069 38.9785 24.3739 38.3113 23.392 37.5608C22.2984 36.7268 21.3491 35.7539 20.6022 34.6072C20.1811 33.9585 19.8716 33.2381 19.4923 32.5617C19.4156 32.4227 19.2713 32.279 19.1247 32.2234C17.3145 31.5516 15.495 30.9007 13.6848 30.2358C13.0891 30.0181 12.5028 29.7748 11.9211 29.5246C11.7047 29.432 11.5907 29.571 11.4744 29.6752C10.2482 30.7733 8.82652 31.5308 7.28854 32.096C6.64403 32.3323 5.98788 32.4667 5.29917 32.4366C4.71282 32.4111 4.415 32.0474 4.60114 31.4914C4.85476 30.7362 5.13629 29.9903 5.43179 29.2513C5.85293 28.1949 6.13214 27.1038 6.34155 25.9919C6.35551 25.9155 6.31363 25.7996 6.25546 25.744C5.64818 25.1603 5.0153 24.6043 4.42198 24.0066C3.5192 23.0985 2.75137 22.0839 2.10919 20.9766C1.50889 19.9434 1.00864 18.8638 0.673584 17.7148C0.431602 16.8855 0.238482 16.0469 0.205908 15.1759C0.1966 14.9049 0.110511 14.6361 0.101204 14.3651C0.0918967 14.0917 0.110511 13.8138 0.157046 13.545C0.280364 12.8153 0.394374 12.0833 0.566554 11.3675C0.838784 10.2416 1.37859 9.23855 2.06033 8.30498C2.78395 7.31581 3.70069 6.5305 4.75471 5.92819C5.69937 5.38843 6.69987 4.95987 7.78414 4.73053C8.61479 4.55447 9.44078 4.39231 10.2924 4.33208C11.1626 4.27185 12.0235 4.2649 12.8867 4.39695C13.3172 4.46181 13.7592 4.46181 14.192 4.51972C15.3996 4.67957 16.5793 4.95987 17.738 5.33515C19.8925 6.03707 21.8726 7.07025 23.6572 8.4625C24.3902 9.03469 25.1161 9.6231 25.7932 10.2578C26.7053 11.1103 27.4824 12.0833 28.1688 13.1281C28.8901 14.2261 29.8627 14.9836 31.175 15.2593C32.0219 15.4377 32.9107 15.111 33.4342 14.4624C34.0555 13.6956 34.3254 12.7875 34.4394 11.8238C34.4743 11.5343 34.4976 11.2424 34.5604 10.9598C34.6209 10.6864 34.4627 10.5451 34.2882 10.3991C33.4179 9.67638 32.706 8.80999 32.1313 7.84862C31.7008 7.12585 31.3029 6.37065 30.9981 5.58766C30.7189 4.86489 30.5793 4.08653 30.3908 3.32901C30.3141 3.02091 30.2675 2.70586 30.2163 2.39081C30.2001 2.30046 30.2163 2.20317 30.2163 2.09892L30.214 2.10355ZM18.4686 28.0536C18.5035 28.0189 18.5384 27.9865 18.571 27.9517C18.571 27.4374 18.5291 26.9185 18.5803 26.4089C18.6594 25.6236 18.8036 24.8452 18.9153 24.0622C18.9339 23.9302 18.9432 23.812 18.7431 23.768C18.5384 23.7217 18.3476 23.6082 18.1568 23.5109C16.5257 22.6723 14.8761 21.8661 13.2729 20.9789C11.8769 20.2051 10.4971 19.3897 9.17321 18.5025C7.72364 17.5295 6.35086 16.45 4.93852 15.4238C4.68025 15.2361 4.44758 14.9674 4.00549 15.0253C3.99619 15.4956 3.91708 15.9797 3.99153 16.4384C4.14975 17.4067 4.5453 18.3009 5.0758 19.1303C5.61095 19.9712 6.19496 20.7773 6.90695 21.4792C7.71666 22.2761 8.51008 23.0962 9.39192 23.8097C10.7275 24.8915 12.2026 25.7765 13.7825 26.4645C14.8365 26.9232 15.9185 27.3286 17.0027 27.7154C17.4727 27.8822 17.98 27.9424 18.4686 28.0513V28.0536ZM21.5259 17.189C21.612 16.0261 20.8093 14.8886 19.041 15.0021C18.0032 15.0693 17.1493 15.8963 17.1237 17.1102C17.0911 18.5627 18.1638 19.4824 19.4365 19.3967C20.5696 19.3202 21.5888 18.5905 21.5259 17.189Z" fill="#FF4E4E"/>
</svg>
